<?xml version="1.0" standalone="no"?>
<!DOCTYPE svg PUBLIC "-//W3C//DTD SVG 1.1//EN" "http://www.w3.org/Graphics/SVG/1.1/DTD/svg11.dtd" >
<svg>
<metadata>
Created by FontForge 20110222 at Mon Mar  7 12:51:01 2011
 By www-data
Copyright (c) 2010 by ARTHUR SANDRINI PINTO -  JONATHAN AMOROSO DE LIMA - FELIPE ROGUE DOLCE. All rights reserved.
</metadata>
<defs>
<font id="ASO" horiz-adv-x="807" >
  <font-face 
    font-family="ASO"
    font-weight="400"
    font-stretch="normal"
    units-per-em="1000"
    panose-1="2 0 0 0 0 0 0 0 0 0"
    ascent="750"
    descent="-250"
    x-height="298.5"
    cap-height="700"
    bbox="-186.333 -680 1888 1198"
    underline-thickness="50"
    underline-position="-50"
    unicode-range="U+0020-2122"
  />
    <missing-glyph />
    <glyph glyph-name="space" unicode=" " horiz-adv-x="500" 
 />
    <glyph glyph-name="space" unicode="&#xa0;" horiz-adv-x="500" 
 />
    <glyph glyph-name="E" unicode="E" horiz-adv-x="784" 
d="M594 248q10 0 16.5 -6.5t6.5 -16.5t-6.5 -16.5t-16.5 -6.5h-335q-11 0 -17.5 6.5t-6.5 16.5t6.5 16.5t17.5 6.5h335zM710 -204q11 0 17.5 -6.5t6.5 -16.5t-6.5 -16.5t-17.5 -6.5h-266h-70h-132q-29 0 -62.5 18t-62 45.5t-48 61.5t-19.5 67v109v36v289v23v109q0 28 18 62
t45.5 62.5t61.5 48t67 19.5h132h12h324q11 0 17.5 -6.5t6.5 -16.5t-6.5 -16.5t-17.5 -6.5h-324h-12h-115q-29 0 -58.5 -16t-52.5 -40.5t-37.5 -53t-14.5 -53.5v-92v-23v-289v-36v-93q0 -29 16 -58t40.5 -52t53 -37.5t53.5 -14.5h115h70h266z" />
    <glyph glyph-name="F" unicode="F" horiz-adv-x="784" 
d="M710 700q10 0 16.5 -6.5t6.5 -16.5t-6.5 -16.5t-16.5 -6.5h-324h-12h-115q-29 0 -58.5 -16t-52.5 -40t-37.5 -53t-14.5 -54v-92v-22v-141v-185v-276q0 -11 -6.5 -17.5t-15.5 -6.5q-11 0 -17.5 6.5t-6.5 17.5v276v185v141v22v109q0 28 17.5 62t45 62.5t62 48t67.5 19.5
h132h12h324zM594 249q10 0 16.5 -7t6.5 -17q0 -9 -6.5 -15.5t-16.5 -6.5h-335q-10 0 -17 6.5t-7 15.5q0 10 7 17t17 7h335z" />
    <glyph glyph-name="G" unicode="G" 
d="M564 700q29 0 62.5 -18t62.5 -45.5t48.5 -62t19.5 -67.5v-4v-35v-23q0 -10 -6.5 -17t-16.5 -7t-16.5 7t-6.5 17v23v23q0 29 -16 58t-40 52.5t-52.5 38t-53.5 14.5h-164h-23h-103q-29 0 -58 -16t-52.5 -40.5t-38 -53t-14.5 -53.5v-93v-23v-289v-36v-92q0 -29 16 -58
t40.5 -52t53 -37.5t53.5 -14.5h162h23h105q29 0 58 16t52 40t37.5 52.5t14.5 53.5v53v5v23v11q0 22 -11 34.5t-24 17.5q-16 6 -35 7h-267q-10 0 -16.5 6.5t-6.5 16.5t6.5 16.5t16.5 6.5h279h5q45 -3 72 -27.5t27 -88.5v-23v-58v-15v-8q0 -5 -1 -8q-5 -29 -23.5 -60
t-45.5 -57t-59.5 -43t-63.5 -17h-120h-23h-178q-29 0 -62.5 17.5t-62.5 45t-48.5 62t-19.5 68.5v107v36v289v23v109q0 29 18 62.5t45.5 62.5t62 48.5t67.5 19.5h119h23h179v0z" />
    <glyph glyph-name="H" unicode="H" horiz-adv-x="853" 
d="M780 700q10 0 16.5 -6.5t6.5 -16.5v-904q0 -10 -6.5 -16.5t-16.5 -6.5t-16.5 6.5t-6.5 16.5v904q0 10 6.5 16.5t16.5 6.5zM641 248q10 0 16.5 -6.5t6.5 -16.5q0 -9 -6.5 -16t-16.5 -7h-475q-19 -1 -34 -7q-13 -5 -23.5 -17t-10.5 -33v-36v-5v-331q0 -10 -7.5 -16.5
t-17.5 -6.5q-9 0 -16 6.5t-7 16.5v336v24v185v23v336q0 10 7 16.5t16 6.5q10 0 17.5 -6.5t7.5 -16.5v-331v-5v-35q0 -22 10.5 -34t23.5 -17q15 -6 34 -7h475z" />
    <glyph glyph-name="I" unicode="I" horiz-adv-x="146" 
d="M73 700q10 0 16.5 -6.5t6.5 -16.5v-904q0 -9 -6.5 -16t-16.5 -7t-16.5 7t-6.5 16v904q0 10 6.5 16.5t16.5 6.5z" />
    <glyph glyph-name="J" unicode="J" horiz-adv-x="818" 
d="M744 700q10 0 17 -7t7 -17v-278v-184v-140v-22v-110q0 -29 -17.5 -62.5t-45.5 -62t-62.5 -48t-67.5 -19.5h-137h-6h-58h-62h-70q-27 0 -59 16t-59.5 41.5t-48 57t-24.5 63.5q-1 1 -1 7v7v39v151q0 10 7 17t17 7q8 0 15 -7t7 -17v-151v-23q0 -29 16 -58t40 -52t52.5 -37.5
t53.5 -14.5h54h62h58h6h122q28 0 57 16t52 40t37.5 52.5t14.5 53.5v94v22v140v184v278q0 10 7 17t16 7z" />
    <glyph glyph-name="V" unicode="V" horiz-adv-x="934" 
d="M50 669q-4 8 0.5 17t12.5 12q9 4 17.5 0.5t12.5 -13.5l293 -739q14 -27 32 -48t46 -21q24 0 44.5 21.5t34.5 47.5l298 739q4 9 13 13t17 0q9 -4 12.5 -12.5t0.5 -17.5l-278 -689l-36 -102q-14 -36 -31 -64q-14 -24 -33 -43.5t-42 -19.5q-22 0 -41 19.5t-33 43.5
q-17 28 -31 64l-43 122l-266 670v0z" />
    <glyph glyph-name="T" unicode="T" horiz-adv-x="932" 
d="M467 489q10 0 16.5 -6.5t6.5 -16.5v-693q0 -10 -6.5 -16.5t-16.5 -6.5q-11 0 -18 6.5t-7 16.5v693q0 10 7 16.5t18 6.5zM859 700q10 0 16.5 -6.5t6.5 -16.5q0 -11 -6.5 -17.5t-16.5 -6.5h-786q-10 0 -16.5 6.5t-6.5 17.5q0 10 6.5 16.5t16.5 6.5h786z" />
    <glyph glyph-name="O" unicode="O" 
d="M564 701q29 0 62.5 -18t62.5 -46t48.5 -62.5t19.5 -67.5v-61v-82v-290v-23v-108q0 -29 -17.5 -62.5t-45.5 -62.5t-62.5 -48.5t-67.5 -19.5h-120h-23h-178q-29 0 -62.5 17.5t-62.5 45.5t-48.5 62.5t-19.5 67.5v108v35v290v24v107q0 29 17.5 63t45.5 63t62.5 48.5
t67.5 19.5h120h23h178zM711 446v45q0 29 -16 58t-40 52.5t-53 38t-54 14.5h-162h-23h-104q-29 0 -58.5 -16t-52.5 -40t-37.5 -53t-14.5 -54v-91v-24v-290v-35v-92q0 -29 16 -58.5t40 -52.5t52.5 -37.5t54.5 -14.5h162h23h104q29 0 58 16t52.5 40t38 52.5t14.5 54.5v115v290
v82z" />
    <glyph glyph-name="M" unicode="M" horiz-adv-x="1434" 
d="M1383 -214q4 -9 0 -17t-13 -13q-8 -4 -17 0.5t-12 12.5l-256 643l-38 92q-14 27 -34 48t-44 21q-13 0 -25.5 -7.5t-23.5 -20t-20.5 -28t-17.5 -31.5l-60 -161q-13 -36 -30 -64q-14 -24 -33 -43.5t-41 -19.5t-40.5 19.5t-32.5 43.5q-17 28 -30 64l-59 159q-8 16 -17.5 32
t-20.5 28.5t-23.5 20.5t-26.5 8q-23 0 -43 -21t-36 -48l-297 -735q-4 -8 -12.5 -12.5t-16.5 -0.5q-9 5 -13 13t0 17l277 684l37 103q13 35 30 63q14 24 33 44t41 20q21 0 40 -20t33 -44q17 -28 30 -63l50 -139q8 -18 18 -37.5t22 -35t26.5 -26t30.5 -10.5q15 0 28 8.5
t25 22.5t22 31t18 34l55 152q13 35 30 63q14 24 32.5 44t40.5 20t41 -20t33 -44q17 -28 30 -63l27 -74l283 -713v0z" />
    <glyph glyph-name="S" unicode="S" horiz-adv-x="875" 
d="M825 44v-74v-27q0 -29 -18 -62.5t-45.5 -62.5t-62 -48.5t-67.5 -19.5h-40h-102h-336q-11 0 -18 7t-7 16q0 10 7 16.5t18 6.5h336h102h25q28 0 57 16t52.5 40t38 52.5t14.5 53.5v12v59q0 28 -16 57t-40 52.5t-52.5 38t-53.5 14.5h-116h-116h-58h-74q-28 0 -61 16.5
t-61.5 43t-48 59.5t-22.5 65v8v109v15q0 29 18 62.5t45.5 62.5t62 48.5t67.5 19.5h15h128h335q11 0 17.5 -6.5t6.5 -16.5t-6.5 -16.5t-17.5 -6.5h-335h-128q-29 0 -57.5 -16t-52 -40t-38 -52.5t-14.5 -53.5v-94q0 -29 16 -57.5t40 -52t52.5 -38t53.5 -14.5h59h58h116h127h4
q27 0 60 -16.5t61.5 -43t48.5 -59t23 -65.5v-8z" />
    <glyph glyph-name="U" unicode="U" horiz-adv-x="819" 
d="M746 700q10 0 16.5 -6.5t6.5 -16.5v-277v-187v-139v-23v-109q0 -29 -17.5 -62.5t-45.5 -62t-62.5 -48t-67.5 -19.5h-132h-12h-46h-11h-59h-73q-32 0 -66 18.5t-61 47.5q-26 24 -43.5 53.5t-21.5 59.5q-1 1 -1 5v8v39v70v23v58v81v187v277q0 10 6.5 16.5t16.5 6.5t17 -6.5
t7 -16.5v-277v-187v-81v-58v-23v-70v-23q0 -26 14.5 -54.5t38.5 -53.5q25 -24 53.5 -39t54.5 -15h58h59h11h46h12h117q28 0 57 16t52 40t37.5 52.5t14.5 53.5v93v23v139v187v277q0 10 7.5 16.5t16.5 6.5z" />
    <glyph glyph-name="L" unicode="L" horiz-adv-x="783" 
d="M710 -204q10 0 16.5 -6.5t6.5 -16.5t-6.5 -16.5t-16.5 -6.5h-323h-12h-132q-33 0 -67.5 19.5t-62.5 48.5t-45.5 62.5t-17.5 62.5v108v23v138v186v278q0 10 6.5 17t16.5 7t16.5 -7t6.5 -17v-278v-186v-138v-23v-93q0 -25 14.5 -53.5t37.5 -52.5t52.5 -40t58.5 -16h116h12
h323v0z" />
    <glyph glyph-name="Z" unicode="Z" horiz-adv-x="1057" 
d="M73 653q-9 0 -16 7t-7 17q0 9 7 16t16 7h598h200q30 -2 56 -8q22 -6 43 -17.5t29 -34.5q7 -21 -5.5 -45.5t-30.5 -45.5q-21 -25 -51 -49l-114 -90l-531 -446q-7 -6 -17 -5t-15 9q-6 7 -5.5 16.5t7.5 15.5l584 483q13 13 25.5 27.5t21 29.5t12 30t-0.5 29q-8 22 -31 38
t-52 16h-109h-614zM990 -204q10 0 16.5 -6.5t6.5 -16.5t-6.5 -16.5t-16.5 -6.5h-905q-10 0 -16.5 6.5t-6.5 16.5t6.5 16.5t16.5 6.5h905z" />
    <glyph glyph-name="N" unicode="N" horiz-adv-x="875" 
d="M802 700q10 0 16.5 -6.5t6.5 -17.5v-626v-107v-48q-1 -38 -10 -69q-8 -26 -23 -49t-44 -26q-19 -2 -35.5 6t-29 20.5t-21.5 26t-14 22.5l-414 710q-38 55 -84 39q-20 -7 -35.5 -28t-17.5 -48v-726q0 -10 -7 -16.5t-17 -6.5t-16.5 6.5t-6.5 16.5v623v12v159q1 30 7 56
q5 22 16.5 43t34.5 30q32 9 58 -3.5t44 -31.5q21 -22 38 -54l45 -81l332 -564q5 -9 10.5 -19t10.5 -18q15 -26 36 -38.5t43 -8.5q44 7 53 58v740q0 11 7 17.5t17 6.5z" />
    <glyph glyph-name="Y" unicode="Y" horiz-adv-x="796" 
d="M744 694q8 -6 8 -15.5t-6 -16.5l-288 -318q-7 -9 -16 -9.5t-17 6.5q-7 8 -7 18t5 17l289 317q7 6 16 7t16 -6zM342 383q13 -17 20 -32.5t10 -28.5q4 -15 4 -28v-520q0 -10 -6.5 -16.5t-16.5 -6.5t-16.5 6.5t-6.5 16.5v520q0 11 -4.5 22.5t-9.5 20.5q-6 11 -13 20
l-253 306q-6 7 -5.5 16.5t8.5 15.5q7 6 17 5t15 -9z" />
    <glyph glyph-name="K" unicode="K" horiz-adv-x="725" 
d="M671 -210q8 -5 9 -14t-5 -17t-15.5 -9t-16.5 5l-537 424q-4 2 -5 3q-2 2 -3 2.5t-2 1.5v-413q0 -10 -6.5 -16.5t-16.5 -6.5t-16.5 6.5t-6.5 16.5v904q0 10 6.5 16.5t16.5 6.5t16.5 -6.5t6.5 -16.5v-400q1 -18 11.5 -32t20.5 -26zM177 280q-8 -6 -17.5 -4t-14.5 10
t-3.5 17.5t9.5 14.5l490 333q8 6 17 4t14 -10t3.5 -17t-9.5 -15z" />
    <glyph glyph-name="W" unicode="W" horiz-adv-x="1441" 
d="M1378 698q11 -5 13.5 -14t-0.5 -18l-277 -686l-38 -103q-14 -36 -31 -64q-14 -24 -34 -43.5t-42 -19.5t-40.5 19.5t-32.5 43.5q-17 28 -30 64l-53 151q-8 17 -17.5 34.5t-21 31.5t-25.5 22.5t-30 8.5q-15 0 -28.5 -9t-25 -23t-21.5 -31t-17 -34l-56 -151q-13 -36 -30 -64
q-14 -24 -33 -43.5t-41 -19.5q-20 0 -38.5 19.5t-32.5 43.5q-17 28 -32 64l-29 75l-285 714q-3 10 -0.5 18.5t13.5 13.5q10 4 18.5 0t12.5 -14q64 -161 107.5 -271.5t71.5 -182.5t43.5 -111t22.5 -57t8.5 -21.5l1.5 -3.5l39 -90q14 -29 34 -49.5t45 -20.5q14 0 26.5 7.5
t24 20t20.5 28t17 31.5l61 161q13 36 30 64q14 24 32.5 44t40.5 20t41.5 -20t33.5 -44q17 -28 30 -64l58 -158q8 -16 17.5 -32t20 -29t23 -21t26.5 -8q25 0 45 20.5t34 47.5l300 739q4 10 12.5 14t17.5 0z" />
    <glyph glyph-name="X" unicode="X" horiz-adv-x="1071" 
d="M997 -205q10 0 17 -6t7 -17q0 -9 -7 -15.5t-17 -6.5h-289q-22 0 -46.5 9.5t-48.5 26t-44.5 38.5t-34.5 46q-11 -19 -31 -39.5t-43.5 -38t-48 -29t-45.5 -13.5h-296q-9 0 -15.5 6.5t-6.5 15.5q0 11 6.5 17t15.5 6h278q30 0 59.5 16t52.5 40.5t37 53t14 52.5v71
q0 11 6.5 16.5t16.5 5.5q24 0 24 -22v-71q0 -28 16 -57t40.5 -52t53 -38t52.5 -15h277zM72 654q-9 0 -15.5 6.5t-6.5 17.5q0 9 6.5 15.5t15.5 6.5h294q25 0 49.5 -11.5t47 -29t41 -38t30.5 -39.5q14 22 33.5 43.5t42 38t47.5 26.5t51 10h289q10 0 17 -6.5t7 -15.5
q0 -11 -7 -17.5t-17 -6.5h-277q-28 0 -57 -16t-52 -40.5t-38 -53t-15 -53.5v-10v-47v-12v-22q0 -22 -24 -22q-10 0 -16.5 5.5t-6.5 16.5v22v12v47v10q0 29 -16 58t-40 52.5t-52.5 38t-54.5 14.5h-276z" />
    <glyph glyph-name="P" unicode="P" horiz-adv-x="714" 
d="M470 700q29 0 63 -18t63 -45.5t48.5 -62t19.5 -67.5v-2v-13v-23v-39q0 -29 -18 -62.5t-46 -62.5t-62.5 -48.5t-67.5 -19.5h-38h-105h-87h-5h-24h-11q-22 0 -34 -11t-17 -25q-6 -16 -7 -35v-393q0 -10 -6.5 -16.5t-16.5 -6.5q-9 0 -16 6.5t-7 16.5v405v5q3 46 27.5 73
t87.5 27h24h92h105h23q29 0 58 16t52 40t37.5 52.5t14.5 53.5v24v23q0 29 -16 57.5t-40 51.5t-52.5 37.5t-53.5 14.5h-23h-163h-196q-10 0 -16.5 6.5t-6.5 17.5q0 10 6.5 16.5t16.5 6.5h196h163h38z" />
    <glyph glyph-name="Q" unicode="Q" horiz-adv-x="861" 
d="M618 -204q9 0 16 -7t7 -16q0 -10 -7 -16.5t-16 -6.5h-173h-163h-39q-29 0 -62.5 17.5t-62.5 45.5t-48.5 62t-19.5 67v108v36v290v23v108q0 29 18 62.5t45.5 62.5t62 48.5t67.5 19.5h120h23h178q29 0 62.5 -18t62.5 -45.5t48.5 -62t19.5 -67.5v-62v-80v-70v-34v-139
q0 -10 -6.5 -16.5t-16.5 -6.5t-16.5 6.5t-6.5 16.5v139v34v70v80v46q0 29 -16 58t-40 52.5t-52 38t-53 14.5h-164h-23h-104q-29 0 -58.5 -16t-52.5 -40t-37.5 -53t-14.5 -54v-92v-23v-290v-36v-92q0 -29 16 -58t40 -52t52.5 -37.5t54.5 -14.5h23h163h173zM811 -261
q5 -8 3.5 -17t-9.5 -14q-8 -7 -17.5 -4.5t-14.5 10.5l-208 291q-5 8 -3 18t10 15q8 6 17.5 5t14.5 -9z" />
    <glyph glyph-name="R" unicode="R" horiz-adv-x="713" 
d="M471 700q29 0 62.5 -17.5t62.5 -45.5t48 -62.5t19 -68.5v-3v-11v-24v-38q0 -29 -17.5 -63t-45.5 -63t-62 -48.5t-67 -19.5h-39h-104h-87h-5h-23h-14q-22 0 -33.5 -11t-16.5 -24q-6 -15 -7 -34v-393q0 -10 -6.5 -17t-16.5 -7t-16.5 7t-6.5 17v404q0 2 0.5 3t0.5 3
q1 23 7.5 41.5t20 31t35 19.5t53.5 7h23h92h104h24q29 0 57.5 16t51.5 40t37.5 52.5t14.5 53.5v23v24q0 29 -15.5 58t-39.5 52t-52.5 37.5t-53.5 14.5h-24h-161h-198q-10 0 -16.5 6.5t-6.5 16.5t6.5 16.5t16.5 6.5h198h161h39zM643 -210q7 -8 6.5 -17.5t-8.5 -17.5
q-8 -5 -17 -4.5t-14 7.5l-320 373q-5 8 -4.5 17.5t7.5 16.5q8 5 17.5 4.5t15.5 -7.5z" />
    <glyph glyph-name="quotedbl" unicode="&#x22;" horiz-adv-x="233" 
d="M66 700q6 0 10.5 -4.5t4.5 -11.5v-140q0 -7 -4.5 -11t-10.5 -4q-16 0 -16 15v140q0 16 16 16zM167 700q16 0 16 -16v-140q0 -15 -16 -15q-6 0 -11 4t-5 11v140q0 7 5 11.5t11 4.5z" />
    <glyph glyph-name="a" unicode="a" horiz-adv-x="618" 
d="M75 242q-12 0 -20.5 8.5t-8.5 20.5t8.5 20.5t20.5 8.5h406q12 0 20.5 -8.5t8.5 -20.5t-8.5 -20.5t-20.5 -8.5h-406zM538 171q13 0 21.5 -8.5t8.5 -20.5v-363q0 -11 -8.5 -20t-21.5 -9h-318h-15h-14q-44 0 -72 10.5t-44 29.5t-22.5 45t-6.5 58v2v29v1q0 33 6.5 59.5
t22.5 45t44 29t72 10.5h29h290v73q0 12 8.5 20.5t19.5 8.5zM226 -191h284v203h-284h-6h-29h-15q-27 0 -41.5 -13.5t-21 -29.5t-8 -30t-1.5 -15v-29q0 -2 1.5 -15.5t8 -29t21 -28.5t41.5 -13h29h15h6z" />
    <glyph glyph-name="b" unicode="b" horiz-adv-x="619" 
d="M447 300q76 0 111.5 -34.5t38.5 -115.5v-247q2 -65 -25.5 -104t-94.5 -49h-30h-31h-336q-13 0 -21.5 9t-8.5 23v936q0 14 8.5 23t21.5 9q11 0 20 -9t9 -23v-418h307h31zM538 151q-2 25 -10 45q-8 17 -22.5 31.5t-43.5 14.5h-46h-6h-301v-431h301h6h46q29 0 43.5 14.5
t22.5 31.5q8 20 10 46v248z" />
    <glyph glyph-name="c" unicode="c" horiz-adv-x="622" 
d="M543 -192q12 0 20.5 -8.5t8.5 -21.5q0 -12 -8.5 -20t-20.5 -8h-318h-30q-44 0 -72 10.5t-44 29.5t-22.5 46t-6.5 60v245q0 13 8 21t21 8t21.5 -8t8.5 -21v-245q1 -25 9 -44q7 -17 21 -30.5t41 -13.5h363zM138 242q-13 0 -21 8t-8 22q0 12 8 20t21 8h410q12 0 20.5 -8
t8.5 -20q0 -14 -8.5 -22t-20.5 -8h-410z" />
    <glyph glyph-name="d" unicode="d" horiz-adv-x="620" 
d="M559 750q12 0 20.5 -8t8.5 -22v-941q0 -13 -8.5 -21t-20.5 -8h-330h-29q-45 0 -74 11t-46 30.5t-23.5 47t-6.5 61.5v235q0 12 8 21t22 9t22 -9t8 -21v-235q1 -26 9 -45q7 -17 22 -31t44 -14h15h29h6h295v432h-390q-13 0 -21.5 7.5t-8.5 21.5q0 13 8.5 21t21.5 8h390v420
q0 14 8.5 22t20.5 8z" />
    <glyph glyph-name="e" unicode="e" horiz-adv-x="665" 
d="M542 -193q12 0 20.5 -8t8.5 -21q0 -11 -8.5 -19.5t-20.5 -8.5h-347h-26q-31 0 -53 11.5t-36.5 31.5t-22 46.5t-7.5 55.5v246q0 11 8.5 20t20.5 9t20 -9t8 -20v-246q1 -25 9 -44q7 -17 21.5 -30.5t42.5 -13.5h362zM615 129q0 -43 -10.5 -71t-29.5 -44t-45.5 -22.5
t-58.5 -6.5h-202q-12 0 -21 8.5t-9 20.5q0 11 9 19.5t21 8.5h201q24 1 43 9q16 7 29.5 21.5t13.5 41.5v41q-1 24 -9 43q-7 17 -21.5 30.5t-41.5 13.5h-348q-11 0 -20 8.5t-9 20.5t9 20.5t20 8.5h305h43q63 0 97 -38t34 -104v-29z" />
    <glyph glyph-name="f" unicode="f" horiz-adv-x="426" 
d="M235 750q42 0 69.5 -10t43.5 -29t22 -45t6 -58q0 -12 -8.5 -20.5t-19.5 -8.5q-12 0 -19.5 8.5t-7.5 20.5q-1 24 -9 42q-7 16 -22 29.5t-43 13.5h-19h-7h-14h-7h-21q-27 0 -41.5 -13.5t-21.5 -29.5q-8 -18 -9 -42v-308h206q12 0 20 -9t8 -20q0 -12 -8 -20.5t-20 -8.5h-206
v-463q0 -11 -8 -20t-20 -9q-11 0 -20 9t-9 20v832v2q0 31 7 56t23 43t43 28t69 10h15h14h14v0z" />
    <glyph glyph-name="g" unicode="g" horiz-adv-x="647" 
d="M448 300q68 0 98.5 -38.5t32.5 -105.5v-702v-4q-2 -29 -9.5 -53t-24 -41t-44 -26.5t-68.5 -9.5h-13h-15h-7q-13 0 -21.5 8.5t-8.5 20.5t8.5 20.5t21.5 8.5h1h6h15h28q27 0 42 13t22 30q8 19 9 44v285h-2h-287h-30q-42 0 -70 10t-44 28.5t-23 45t-7 58.5v248q0 12 8 20.5
t20 8.5t21 -8.5t9 -20.5v-246q1 -25 9 -43q7 -17 21.5 -30t41.5 -13h30h301h2v348q-1 24 -9 43q-7 16 -22 29.5t-42 13.5h-304q-12 0 -20 9t-8 21t8 20t20 8h261h43v0z" />
    <glyph glyph-name="h" unicode="h" horiz-adv-x="626" 
d="M459 300q12 0 21 -8.5t9 -21.5q0 -12 -9 -20t-21 -8h-352v-462q0 -13 -8.5 -21.5t-19.5 -8.5q-12 0 -20.5 8.5t-8.5 21.5v940q0 13 8.5 21.5t20.5 8.5q11 0 19.5 -8.5t8.5 -21.5v-420h352zM547 175q12 0 20.5 -8.5t8.5 -21.5v-365q0 -13 -8.5 -21.5t-20.5 -8.5
q-13 0 -21 8.5t-8 21.5v365q0 13 8 21.5t21 8.5z" />
    <glyph glyph-name="s" unicode="s" horiz-adv-x="663" 
d="M116 242q-12 0 -20.5 8t-8.5 20t8.5 21t20.5 9h410q11 0 19.5 -9t8.5 -21t-8.5 -20t-19.5 -8h-410zM467 41q57 -1 91 -35.5t40 -95.5v-32q0 -62 -41 -94t-107 -34h-28h-321q-12 0 -19.5 9t-7.5 21q0 13 7.5 20.5t19.5 7.5h349h17q26 0 40.5 13.5t21.5 30.5q8 19 9 44
q-1 25 -9 44q-7 17 -21.5 30.5t-40.5 13.5h-305q-65 3 -96 32.5t-38 95.5v32q0 13 9 20.5t22 7.5q12 0 20 -7.5t8 -20.5v-14q1 -26 9 -45q7 -17 21.5 -30.5t41.5 -13.5h308z" />
    <glyph glyph-name="u" unicode="u" horiz-adv-x="592" 
d="M513 300q12 0 20.5 -8.5t8.5 -20.5v-376q0 -33 -6.5 -59.5t-22.5 -45.5t-44 -29.5t-71 -10.5h-12h-18h-144h-29h-15q-57 0 -90.5 32.5t-39.5 92.5v6v390q0 12 8.5 20.5t20.5 8.5t20.5 -8.5t8.5 -20.5v-376q1 -25 9 -44q7 -17 21.5 -30t41.5 -13h44h6h138h18h16h2h8
q27 0 41.5 13t21.5 30q8 19 9 44v376q0 12 8.5 20.5t20.5 8.5z" />
    <glyph glyph-name="m" unicode="m" horiz-adv-x="832" 
d="M29 170q12 0 20.5 -9t8.5 -21v-361q0 -12 -8.5 -20.5t-20.5 -8.5t-20.5 8.5t-8.5 20.5v361q0 12 8.5 21t20.5 9zM636 300q44 0 72 -10.5t44.5 -29.5t23 -46t6.5 -60v-375q0 -12 -8.5 -20.5t-20.5 -8.5t-20.5 8.5t-8.5 20.5v375q-1 25 -9 44q-7 17 -22 30.5t-42 13.5h-15
h-29h-6h-59h-7h-29h-14q-27 0 -41.5 -13.5t-21.5 -30.5q-8 -19 -9 -44v-245q0 -11 -9 -20t-20 -9q-12 0 -20.5 9t-8.5 20v245q-1 25 -9 44q-7 17 -21.5 30.5t-41.5 13.5h-44h-6h-153q-12 0 -20.5 8.5t-8.5 20.5t8.5 20.5t20.5 8.5h159h29h15q27 0 54 -9.5t47 -30.5
q15 19 43.5 29.5t71.5 10.5h29h72h29z" />
    <glyph glyph-name="n" unicode="n" horiz-adv-x="592" 
d="M79 170q12 0 20.5 -8.5t8.5 -20.5v-362q0 -12 -8.5 -20.5t-20.5 -8.5t-20.5 8.5t-8.5 20.5v362q0 12 8.5 20.5t20.5 8.5zM542 -221q0 -12 -8 -20.5t-21 -8.5q-12 0 -20.5 8.5t-8.5 20.5v377q-1 24 -9 43q-7 16 -21.5 29.5t-41.5 13.5h-23h-20h-7h-225q-13 0 -21 9t-8 20
q0 12 8 20.5t21 8.5h232h20h9q42 0 69.5 -10t44 -28.5t23 -45t7.5 -58.5v-379z" />
    <glyph glyph-name="p" unicode="p" horiz-adv-x="634" 
d="M556 171q11 0 19.5 -9t8.5 -21v-247q0 -30 -5.5 -55.5t-19 -44.5t-37.5 -30t-60 -14h-8h-14h-29h-304v-394q0 -12 -8 -20t-20 -8t-20.5 8t-8.5 20v815q0 66 38 96.5t107 32.5h300q14 0 22.5 -8.5t8.5 -20.5t-8.5 -20.5t-22.5 -8.5h-315q-28 0 -42.5 -13.5t-21.5 -30.5
q-8 -19 -9 -43v-347h299h5h43q27 0 41.5 13t21.5 30q8 18 9 43v247q0 12 9 21t21 9z" />
    <glyph glyph-name="q" unicode="q" horiz-adv-x="635" 
d="M440 300q33 0 59 -6.5t44 -21.5t28.5 -40t13.5 -62v-813q0 -11 -8.5 -19.5t-19.5 -8.5q-13 0 -21.5 8.5t-8.5 19.5v393h-304h-43q-68 0 -98.5 38.5t-32.5 106.5v246q0 13 8.5 21t20.5 8t20.5 -8t8.5 -21v-246q1 -25 9 -44q7 -17 21.5 -30t42.5 -13h347v347q-1 24 -9 43
q-7 17 -21.5 30.5t-41.5 13.5h-29h-20h-270q-13 0 -21 8.5t-8 21.5q0 11 8 19.5t21 8.5h304v0z" />
    <glyph glyph-name="t" unicode="t" horiz-adv-x="388" 
d="M308 300q13 0 21.5 -8t8.5 -21q0 -12 -8.5 -20.5t-21.5 -8.5h-200v-462q0 -13 -8 -21.5t-21 -8.5q-10 0 -19.5 8.5t-9.5 21.5v691q0 12 9.5 20.5t19.5 8.5q13 0 21 -8.5t8 -20.5v-171h200v0z" />
    <glyph glyph-name="r" unicode="r" horiz-adv-x="332" 
d="M251 300q12 0 20 -8.5t8 -20.5t-8 -20.5t-20 -8.5h-72q-27 0 -41.5 -13.5t-21.5 -29.5q-8 -19 -9 -43v-377q0 -12 -8 -20.5t-20 -8.5t-20.5 8.5t-8.5 20.5v377q0 32 6.5 58.5t22.5 45.5t44 29.5t71 10.5h57v0z" />
    <glyph glyph-name="w" unicode="w" horiz-adv-x="881" 
d="M108 -90q0 -12 -8.5 -21t-20.5 -9t-20.5 9t-8.5 21v361q0 12 8.5 20.5t20.5 8.5t20.5 -8.5t8.5 -20.5v-361zM802 300q12 0 20.5 -8.5t8.5 -20.5v-376q0 -33 -6.5 -59.5t-22.5 -45.5t-44.5 -29.5t-71.5 -10.5h-29h-72h-29q-43 0 -71.5 10.5t-44.5 29.5
q-14 -17 -37.5 -27.5t-56.5 -12.5h-7h-14h-29h-160q-12 0 -20 8.5t-8 20.5t8 20.5t20 8.5h153h7h43q27 0 41.5 13t21.5 30q8 19 9 44v245q0 12 8.5 21t20.5 9t21 -9t9 -21v-245q1 -25 9 -44q7 -17 21.5 -30t41.5 -13h14h29h7h58h7h29h14q27 0 42 13t22 30q8 19 9 44v376
q0 12 8.5 20.5t20.5 8.5z" />
    <glyph glyph-name="i" unicode="i" horiz-adv-x="158" 
d="M79 300q12 0 20.5 -8.5t8.5 -20.5v-491q0 -13 -8.5 -21.5t-20.5 -8.5t-20.5 8.5t-8.5 21.5v491q0 12 8.5 20.5t20.5 8.5zM79 423q12 0 20.5 -8.5t8.5 -21.5v-21q0 -13 -8.5 -21.5t-20.5 -8.5t-20.5 8.5t-8.5 21.5v21q0 13 8.5 21.5t20.5 8.5z" />
    <glyph glyph-name="j" unicode="j" horiz-adv-x="315" 
d="M236 300q12 0 20.5 -8.5t8.5 -20.5v-794q0 -33 -6.5 -60.5t-23 -47t-45 -30t-73.5 -10.5h-15h-15h-8q-12 0 -20.5 8.5t-8.5 20.5q0 14 8.5 22t20.5 8h2h6h15h30q28 0 43 13.5t22 30.5q8 19 9 45v794q0 12 8.5 20.5t21.5 8.5zM236 427q12 0 20.5 -8.5t8.5 -20.5v-24
q0 -12 -8.5 -20.5t-20.5 -8.5q-13 0 -21.5 8.5t-8.5 20.5v24q0 12 8.5 20.5t21.5 8.5z" />
    <glyph glyph-name="l" unicode="l" horiz-adv-x="148" 
d="M74 750q10 0 17 -7t7 -17v-952q0 -10 -7 -17t-17 -7t-17 7t-7 17v952q0 10 7 17t17 7z" />
    <glyph glyph-name="o" unicode="o" horiz-adv-x="593" 
d="M543 -105q-2 -69 -31 -103.5t-101 -41.5h-13h-30h-144h-14h-15q-43 0 -71 10.5t-44 29t-22.5 45t-7.5 59.5v277q0 11 8.5 19.5t20.5 8.5t20 -8.5t8 -19.5v-276q1 -25 9 -44q7 -17 21.5 -30.5t41.5 -13.5h31h14h6h133h5h43q27 0 42 13.5t22 30.5q8 19 9 44v260
q-1 25 -9 44q-7 17 -22 30.5t-42 13.5h-275q-12 0 -20.5 8t-8.5 20t8.5 20.5t20.5 8.5h232h23h7q43 0 71 -10t44.5 -29t23 -45.5t6.5 -59.5v-261z" />
    <glyph glyph-name="x" unicode="x" horiz-adv-x="911" 
d="M79 242q-12 0 -20.5 8.5t-8.5 20.5t8.5 20.5t20.5 8.5h225h29q43 0 71.5 -10.5t43.5 -29.5q17 19 44 29.5t70 10.5h30h241q12 0 20 -8.5t8 -20.5t-8 -20.5t-20 -8.5h-235h-6h-30h-14q-27 0 -41.5 -13.5t-21.5 -30.5q-8 -19 -9 -43v-43q0 -12 -8.5 -20.5t-19.5 -8.5
t-19.5 8.5t-8.5 20.5v43q-1 24 -9 43q-7 17 -22 30.5t-42 13.5h-14h-29h-5h-220zM598 242h-6h6zM831 -193q12 0 20.5 -8t8.5 -20t-8.5 -20.5t-20.5 -8.5h-239h-30q-43 0 -70 10t-44 30q-31 -40 -115 -40h-29h-231q-11 0 -20 8.5t-9 20.5t9 20t20 8h226h5h29h14q27 0 42 13
t22 30q8 19 9 44v43q0 12 8.5 21t19.5 9t19.5 -9t8.5 -21v-43q1 -25 9 -44q7 -17 21.5 -30t41.5 -13h14h30h6h233z" />
    <glyph glyph-name="v" unicode="v" horiz-adv-x="705" 
d="M644 296q11 -7 14.5 -18t-3.5 -23l-277 -491q-9 -14 -25.5 -14t-25.5 15l-277 490q-6 11 -3.5 23t13.5 18t21.5 2.5t17.5 -14.5l198 -351q3 -4 13 -13.5t25 -15t33 -1t38 28.5l198 352q6 11 17.5 14.5t22.5 -2.5z" />
    <glyph glyph-name="zero" unicode="0" horiz-adv-x="703" 
d="M553 700q46 -3 73 -27.5t27 -88.5v-12v-11v-544v-35v-119q0 -26 -5.5 -46.5t-18.5 -35.5t-35.5 -23t-56.5 -8h-3h-21h-358h-2q-24 1 -43 7.5t-32.5 19.5t-20.5 34.5t-7 54.5v12v11v707v5q3 45 27.5 72t88.5 27h12h11h359h5zM606 561v11v24q0 21 -11 33t-24 17
q-15 6 -34 7h-348h-11h-24q-22 0 -33.5 -11t-16.5 -24q-6 -15 -7 -34v-690v-5v-11v-24q0 -22 10.5 -33.5t23.5 -16.5q15 -6 35 -7h342h5h21h14q22 0 34 10.5t17 23.5q6 15 7 35v116v35v539v5z" />
    <glyph glyph-name="one" unicode="1" horiz-adv-x="146" 
d="M73 700q9 0 16 -7t7 -16v-903q0 -10 -7 -17t-16 -7t-16 7t-7 17v903q0 9 7 16t16 7z" />
    <glyph glyph-name="two" unicode="2" horiz-adv-x="729" 
d="M657 -203q9 0 15.5 -7t6.5 -17q0 -8 -6.5 -15.5t-15.5 -7.5h-503h-4q-46 3 -73 28t-27 88v20v268v4q2 23 8 42t19 32.5t34.5 20.5t54.5 7h9h14h319h6h6h29q21 0 32.5 10.5t16.5 23.5q6 15 7 35v232v34q0 22 -10.5 34.5t-23.5 17.5q-15 6 -34 7h-464q-9 0 -16 6.5t-7 15.5
q0 10 7 17t16 7h469h2q50 -1 79 -25t29 -90v-10v-253v-1q-1 -24 -6.5 -44t-18.5 -34.5t-35 -22t-55 -7.5h-17h-6h-321h-4h-14h-21q-22 0 -34 -11t-17 -24q-6 -15 -7 -34v-254v-35q0 -22 10.5 -34t24.5 -17q15 -6 35 -7h491z" />
    <glyph glyph-name="three" unicode="3" horiz-adv-x="656" 
d="M490 700q26 0 47.5 -5t36.5 -18.5t23.5 -36t8.5 -56.5v-22v-1v-243q0 -23 -7.5 -44t-24.5 -38q32 -24 32 -92v-13v-11v-266v-5q-3 -45 -27.5 -72t-88.5 -27h-2h-21h-394q-10 0 -16.5 6.5t-6.5 16.5t6.5 16.5t16.5 6.5h389h5h21h14q22 0 34 10.5t17 24.5q6 15 7 35v248v6
v11v24q0 22 -11 34t-24 17q-16 6 -35 7h-2h-21h-209q-9 0 -15.5 7t-6.5 16q0 11 6.5 17.5t15.5 6.5h204h5h21h14q22 0 34 10.5t17 23.5q6 15 7 35v227v5v1v34q0 21 -11 33t-24 17q-16 6 -35 7h-2h-415q-10 0 -16.5 6.5t-6.5 16.5t6.5 17t16.5 7h415h2z" />
    <glyph glyph-name="four" unicode="4" horiz-adv-x="702" 
d="M652 329q0 -30 -6.5 -54t-25.5 -39q29 -23 32 -76v-5v-11v-23v-348q0 -10 -6.5 -16.5t-16.5 -6.5t-16.5 6.5t-6.5 16.5v343v5v34q0 22 -11 34.5t-24 17.5q-16 6 -35 7h-22h-325h-9h-14q-35 0 -57.5 8t-35.5 23t-18 36.5t-5 47.5v348q0 10 6.5 16.5t16.5 6.5t16.5 -6.5
t6.5 -16.5v-348q1 -20 7 -35q5 -14 17 -24.5t35 -10.5h25h9h5h315h5h30h4q22 0 34 10.5t17 24.5q6 15 7 35v348q0 10 6.5 16.5t16.5 6.5t16.5 -6.5t6.5 -16.5v-348z" />
    <glyph glyph-name="five" unicode="5" horiz-adv-x="702" 
d="M652 -123v-11q0 -33 -7.5 -55t-21 -35t-33 -19t-43.5 -7h-2h-494q-9 0 -16 6.5t-7 16.5t7 17t16 7h486q19 1 35 7q13 5 24 17t11 34v33v255q-1 19 -7 35q-5 13 -17.5 24t-34.5 11h-7h-27h-6h-319h-2h-22q-63 0 -87.5 27t-27.5 73v4v13v232v22q0 33 7.5 55t21.5 35t33 19
t43 7h3h471q10 0 16.5 -6.5t6.5 -16.5t-6.5 -17t-16.5 -7h-464q-19 -1 -34 -7q-13 -5 -23.5 -17t-10.5 -34v-23v-242q1 -20 7 -35q5 -14 16.5 -24.5t33.5 -10.5h33h2h5h320h23h4h1q33 0 54.5 -9t33.5 -24t17 -36.5t5 -47.5v-266zM97 562v-6v6z" />
    <glyph glyph-name="six" unicode="6" horiz-adv-x="655" 
d="M495 260q25 0 45.5 -5.5t35 -19t22 -35.5t7.5 -55v-24v-267v-5q-1 -23 -7 -41t-19 -31t-35 -20t-54 -7h-12h-11h-325q-4 0 -10 3q-38 5 -60 30t-22 83v20v3v266q0 22 7.5 43.5t24.5 38.5q-17 16 -24 39t-8 53v23v243v4q1 23 7.5 41.5t20 32t35 20.5t53.5 7h2h21h394
q10 0 16 -6.5t6 -16.5t-6 -17t-16 -7h-389h-5h-21h-14q-22 0 -33.5 -11t-16.5 -24q-6 -15 -7 -34v-227v-5v-35q0 -22 10.5 -33.5t23.5 -16.5q15 -6 35 -7h2h21h306zM560 121v34q0 22 -11 34t-24 17q-16 6 -35 7h-296h-5h-21h-14q-22 0 -33.5 -10.5t-16.5 -23.5
q-6 -15 -7 -34v-251v-5v-3v-32q0 -22 10.5 -33.5t23.5 -16.5q15 -6 35 -7h295h6h11h24q22 0 34 10.5t17 23.5q6 15 7 35v250v5z" />
    <glyph glyph-name="seven" unicode="7" horiz-adv-x="706" 
d="M540 700q26 0 47.5 -5t36.5 -18t23.5 -35.5t8.5 -57.5v-23v-788q0 -10 -6.5 -16.5t-16.5 -6.5t-16.5 6.5t-6.5 16.5v783v5v23v12q0 22 -11 34t-24 17q-16 6 -35 7h-467q-10 0 -16.5 6.5t-6.5 16.5t6.5 16.5t16.5 6.5h467z" />
    <glyph glyph-name="eight" unicode="8" horiz-adv-x="702" 
d="M537 700q25 0 46.5 -5t36.5 -18t23.5 -35.5t8.5 -57.5v-11v-12v-257q0 -17 -9 -35.5t-23 -31.5q32 -26 32 -92v-24v-258q0 -26 -5 -46.5t-18 -35.5t-35.5 -23t-56.5 -8h-24h-1h-346q-26 0 -47 5t-36.5 17.5t-24 34.5t-8.5 56v3v23v266v5q2 25 9.5 44t22.5 33
q-15 13 -23.5 35t-8.5 57v23v244v5q3 45 27.5 72t88.5 27h11h12h348zM605 121v24v10q0 22 -10.5 34t-23.5 17q-15 6 -34 7h-24h-319h-5h-11h-24q-22 0 -33.5 -10.5t-16.5 -23.5q-6 -15 -7 -34v-251v-5v-26v-9q0 -22 10.5 -33.5t23.5 -16.5q15 -6 35 -7h342h4h1h35
q21 0 33 10.5t17 23.5q6 15 7 35v250v5zM605 561v12v23q0 21 -10.5 33t-23.5 17q-15 6 -34 7h-343h-5h-12h-23q-22 0 -33.5 -11t-16.5 -24q-6 -15 -7 -34v-227v-5v-23v-12q0 -22 10.5 -33.5t23.5 -16.5q15 -6 35 -7h12h11h319h5h26h9q21 0 33 10.5t17 23.5q6 15 7 35v227v5z
" />
    <glyph glyph-name="nine" unicode="9" horiz-adv-x="703" 
d="M653 586v-2v-24v-242q0 -22 -7.5 -43t-24.5 -38q15 -14 23.5 -36t8.5 -57v-24v-280q0 -23 -10 -39.5t-26 -28t-37 -17t-43 -5.5h-19h-5h-439q-10 0 -16.5 6.5t-6.5 16.5t6.5 17t16.5 7h434h5h5h31q21 0 33 10.5t17 23.5q6 15 7 35v249v5v24v12q0 21 -11 33t-24 17
q-15 6 -34 7h-1h-23h-351h-1q-24 0 -44.5 5.5t-35 18.5t-23 35t-8.5 55v3v23v243v5q3 46 27.5 72.5t88.5 26.5h6h18h360h5q22 -2 40 -8t30.5 -19t20 -34t7.5 -52v-1zM606 560v26v10q0 21 -11 33t-24 17q-15 6 -34 7h-342h-5h-18h-18q-22 0 -33.5 -11t-16.5 -24
q-6 -15 -7 -34v-226v-5v-26v-9q0 -22 10.5 -34t23.5 -17q15 -6 35 -7h342h5h23h13q21 0 33 10.5t17 24.5q6 15 7 35v225v5z" />
    <glyph glyph-name="z" unicode="z" horiz-adv-x="596" 
d="M74 242q-12 0 -20.5 8.5t-8.5 20.5t8.5 20.5t20.5 8.5h442q13 0 21.5 -8.5t8.5 -20.5q0 -13 -10 -23l-387 -332q-9 -8 -21 -7t-22 10q-8 8 -7 20.5t11 22.5l327 280h-363zM516 -193q13 0 21.5 -8t8.5 -20t-8.5 -20.5t-21.5 -8.5h-442q-12 0 -20.5 8.5t-8.5 20.5t8.5 20
t20.5 8h442z" />
    <glyph glyph-name="k" unicode="k" horiz-adv-x="577" 
d="M408 299q36 -3 59 -14.5t36.5 -30.5t18.5 -44t5 -55v-376q0 -11 -8.5 -19.5t-20.5 -8.5t-20 8.5t-8 19.5v376q-1 24 -9 43q-7 17 -22 30.5t-42 13.5h-116h-28h-146v-464q0 -11 -8.5 -19.5t-20.5 -8.5q-11 0 -19.5 8.5t-8.5 19.5v944q0 12 8.5 20t19.5 8q12 0 20.5 -8
t8.5 -20v-422h139h7h42q27 0 42 13t22 30q8 19 9 44v217q0 12 8.5 20t20.5 8t20 -8t8 -20v-231v-7q-2 -40 -17 -67z" />
    <glyph glyph-name="y" unicode="y" horiz-adv-x="728" 
d="M666 296q12 -6 15.5 -18t-3.5 -23l-285 -502v-397q0 -12 -9 -21t-21 -9q-14 0 -22 9t-8 21v398l-283 501q-7 11 -4 23t13 18q11 7 23 3.5t19 -14.5l206 -364q3 -3 13 -13.5t25.5 -16.5t34.5 -1.5t40 30.5l206 365q5 11 17 14.5t23 -3.5z" />
    <glyph glyph-name="bracketright" unicode="]" horiz-adv-x="225" 
d="M150 750q11 0 18 -7t7 -18v-998q0 -25 -25 -25h-77q-10 0 -16.5 7t-6.5 18q0 10 6.5 16.5t16.5 6.5h54v950h-54q-10 0 -16.5 7t-6.5 17q0 11 6.5 18.5t16.5 7.5h77v0z" />
    <glyph glyph-name="bracketleft" unicode="[" horiz-adv-x="226" 
d="M152 -250q11 0 17.5 -7.5t6.5 -17.5q0 -11 -6.5 -17.5t-17.5 -6.5h-78q-10 0 -17 6.5t-7 17.5v1000q0 11 7 18t17 7h78q11 0 17.5 -7.5t6.5 -18.5q0 -10 -6.5 -17t-17.5 -7h-53v-950h53v0z" />
    <glyph glyph-name="at" unicode="@" horiz-adv-x="854" 
d="M804 590v-546v-4q-3 -50 -28 -78t-93 -28h-23h-343h-25q-65 0 -91 27.5t-29 75.5v6v364q0 28 5.5 50.5t19 38.5t36.5 24.5t59 8.5h13h12h220q35 0 58 -8t37 -22t20.5 -34.5t7.5 -45.5v-2v-436h23h12q23 0 36 11.5t19 25.5q7 16 8 37v523q0 1 -1.5 12.5t-7.5 25
t-18.5 24.5t-35.5 11h-12h-23h-6h-349h-48h-97q-23 0 -35 -11.5t-18 -25.5q-7 -16 -8 -36v-706q1 -21 8 -37q6 -14 18 -25t35 -11h37h1h3h459q9 0 16 -7t7 -18q0 -10 -7 -17t-16 -7h-462h-1h-25q-67 0 -93 28.5t-29 76.5v5v718q0 27 5.5 49.5t19 38.5t37 25t60.5 9h85h48
h355h23q34 0 56.5 -7.5t36.5 -21.5t20 -33t8 -43v-5zM321 -19h290v426q-1 20 -8 37q-6 14 -18.5 25.5t-35.5 11.5h-228h-4h-12h-24q-23 0 -35.5 -11.5t-17.5 -25.5q-7 -17 -7 -37v-352q0 -21 7 -37q5 -14 17.5 -25.5t35.5 -11.5h36h4zM804 590v-546v-4q-3 -50 -28 -78
t-93 -28h-23h-343h-25q-65 0 -91 27.5t-29 75.5v6v364q0 28 5.5 50.5t19 38.5t36.5 24.5t59 8.5h13h12h220q35 0 58 -8t37 -22t20.5 -34.5t7.5 -45.5v-2v-436h23h12q23 0 36 11.5t19 25.5q7 16 8 37v523q0 1 -1.5 12.5t-7.5 25t-18.5 24.5t-35.5 11h-12h-23h-6h-349h-48h-97
q-23 0 -35 -11.5t-18 -25.5q-7 -16 -8 -36v-706q1 -21 8 -37q6 -14 18 -25t35 -11h37h1h3h459q9 0 16 -7t7 -18q0 -10 -7 -17t-16 -7h-462h-1h-25q-67 0 -93 28.5t-29 76.5v5v718q0 27 5.5 49.5t19 38.5t37 25t60.5 9h85h48h355h23q34 0 56.5 -7.5t36.5 -21.5t20 -33t8 -43
v-5zM321 -19h290v426q-1 20 -8 37q-6 14 -18.5 25.5t-35.5 11.5h-228h-4h-12h-24q-23 0 -35.5 -11.5t-17.5 -25.5q-7 -17 -7 -37v-352q0 -21 7 -37q5 -14 17.5 -25.5t35.5 -11.5h36h4z" />
    <glyph glyph-name="question" unicode="?" horiz-adv-x="715" 
d="M470 700q30 0 64 -17.5t63 -45.5t48.5 -62.5t19.5 -67.5v-4v-45v-38q0 -29 -17.5 -63t-45.5 -63t-63 -48t-69 -19h-11h-4h-35q-22 0 -34 -11t-17 -25q-6 -16 -7 -36v-283q0 -10 -6.5 -16.5t-16.5 -6.5q-9 0 -16 6.5t-7 16.5v294v5q3 45 25 72t79 29h12h23q30 0 59 16
t52.5 40.5t38 53t14.5 53.5v23v34q0 29 -16 58t-40.5 52t-53.5 37.5t-54 14.5h-128h-35h-34q-25 0 -53.5 -14.5t-52.5 -37.5t-40 -52t-16 -58v-11v-18v-5q-2 -8 -8.5 -13t-14.5 -5q-9 0 -15 5t-8 13v5v18v26q0 33 19 67.5t48 62.5t63 45.5t63 17.5h49h35h143zM339 -185
q10 0 16.5 -6.5t6.5 -17.5v-18q0 -10 -6.5 -16.5t-16.5 -6.5q-9 0 -16 6.5t-7 16.5v18q0 11 7 17.5t16 6.5z" />
    <glyph glyph-name="perthousand" unicode="&#x2030;" horiz-adv-x="1099" 
d="M323 225h-124h-12h-13q-37 0 -61 9t-38 25t-19.5 38.5t-5.5 50.5v239q0 11 7 17.5t18 6.5q10 0 17 -6.5t7 -17.5v-238q1 -21 8 -37q6 -14 18.5 -25t36.5 -11h25h12h6h113h5h38q23 0 35.5 11t18.5 25q7 16 8 37v226q-1 20 -8 37q-6 14 -18.5 25.5t-35.5 11.5h-19h-19h-5
h-182q-11 0 -18 8t-7 18q0 11 7 18t18 7h187h19h7q37 0 61 -9t38.5 -25t20 -39t5.5 -51v-227q0 -26 -5 -47.5t-17 -37.5t-32.5 -26t-52.5 -13h-6h-12h-26zM797 697q9 -4 13 -13.5t-3 -18.5l-440 -901q-5 -9 -14.5 -12.5t-17.5 1.5q-11 5 -14.5 14.5t0.5 18.5l444 900
q4 10 13.5 13t18.5 -2zM1049 -124q0 -27 -5 -49t-17 -38.5t-32.5 -26.5t-51.5 -12h-6h-12h-27h-124h-12h-12q-37 0 -61 9t-38.5 25t-20 39t-5.5 51v237q0 11 7 18.5t17 7.5q11 0 18 -7.5t7 -18.5v-235q1 -21 8 -38q6 -14 19 -26t37 -12h24h12h6h113h5h39q23 0 35.5 12
t18.5 26q7 17 8 38v223q-1 20 -8 37q-6 14 -18.5 26t-35.5 12h-20h-19h-5h-181q-11 0 -18 7.5t-7 18.5t7 18t18 7h186h19h8q37 0 61 -9t38 -25t19.5 -39t5.5 -51v-225z" />
    <glyph glyph-name="exclam" unicode="!" horiz-adv-x="142" 
d="M71 700q8 0 14.5 -6t6.5 -15v-818q0 -9 -6.5 -15t-14.5 -6q-9 0 -15 6t-6 15v818q0 9 6 15t15 6zM71 -193q8 0 14.5 -6t6.5 -14v-16q0 -9 -6.5 -15t-14.5 -6q-9 0 -15 6t-6 15v16q0 8 6 14t15 6z" />
    <glyph glyph-name="dollar" unicode="$" horiz-adv-x="850" 
d="M800 38v-73v-25q0 -29 -17.5 -62t-44.5 -61.5t-61 -47.5t-67 -19h-37h-102h-12v-68q0 -10 -7 -16.5t-16 -6.5t-16 6.5t-7 16.5v68h-273q-9 0 -15.5 6.5t-6.5 17.5q0 9 6.5 15.5t15.5 6.5h273v386h-45h-56h-72q-27 0 -59.5 16.5t-60.5 42.5t-48 58t-22 64v8v106v14
q0 29 17.5 62t44.5 61.5t61 47.5t67 19h15h125h33v46q0 10 7 16.5t16 6.5t16 -6.5t7 -16.5v-46h249q10 0 16.5 -6t6.5 -16q0 -9 -6.5 -16.5t-16.5 -7.5h-249v-408h23h124h4q28 0 60 -16.5t60.5 -42.5t48 -58t21.5 -64v-8zM413 227v408h-33h-125q-28 0 -56.5 -15.5t-51 -39
t-37 -51.5t-14.5 -52v-91q0 -29 15.5 -57t39 -51t51.5 -37t53 -14h57h56h45zM754 -35v58q0 28 -15.5 56.5t-39.5 51.5t-52 37t-52 14h-113h-23v-386h12h102h22q28 0 56.5 15.5t51.5 39.5t37 51.5t14 51.5v11z" />
    <glyph glyph-name="period" unicode="." horiz-adv-x="180" 
d="M89 -138q17 0 29 -12t12 -28v-32q0 -17 -12 -28.5t-29 -11.5q-16 0 -27.5 11.5t-11.5 28.5v32q0 16 11.5 28t27.5 12z" />
    <glyph glyph-name="asterisk" unicode="*" horiz-adv-x="498" 
d="M419 579q12 0 20.5 -8.5t8.5 -21.5q0 -11 -8.5 -19.5t-20.5 -8.5h-90l75 -76q9 -8 9 -20t-9 -20q-8 -8 -20.5 -8t-20.5 8l-84 84v-110q0 -12 -8.5 -20.5t-20.5 -8.5q-13 0 -21 8.5t-8 20.5v97l-63 -63q-9 -8 -21.5 -8t-20.5 8q-9 8 -9 21t9 21l66 66h-103
q-12 0 -20.5 8.5t-8.5 19.5q0 13 8.5 21.5t20.5 8.5h109l-66 66q-8 8 -8 21t8 21t20 8t21 -8l58 -58v92q0 12 8 20.5t21 8.5q12 0 20.5 -8.5t8.5 -20.5v-105l79 79q8 8 20 8t20 -8t8 -20t-8 -20l-76 -76h97v0z" />
    <glyph glyph-name="less" unicode="&#x3c;" horiz-adv-x="578" 
d="M517 -201q9 -5 12 -15.5t-3 -19.5q-5 -10 -15.5 -12.5t-21.5 2.5l-439 248q-6 3 -9 9.5t-3 14t3 14t10 9.5l439 247q11 5 22 2.5t16 -11.5t2.5 -19.5t-12.5 -15.5l-316 -177q-3 -3 -11.5 -12t-13.5 -22.5t-1.5 -30t25.5 -34.5l316 -177v0z" />
    <glyph glyph-name="greater" unicode="&#x3e;" horiz-adv-x="578" 
d="M50 -237q-6 9 -3 19.5t12 15.5l318 179q22 18 25.5 34.5t-1.5 30t-13.5 22.5t-11.5 12l-316 177q-10 5 -12.5 15.5t2.5 19.5t16 11.5t22 -2.5l439 -247q7 -3 10 -9.5t3 -14t-3 -14t-9 -9.5l-441 -250q-11 -5 -21.5 -2.5t-15.5 12.5z" />
    <glyph glyph-name="ampersand" unicode="&#x26;" horiz-adv-x="950" 
d="M903 -209q6 -6 7 -15.5t-5 -17.5q-16 -15 -33 -3l-92 82q-30 -36 -69.5 -61.5t-78.5 -25.5h-56h-87h-244q-33 0 -67 19.5t-62 48.5t-45.5 62.5t-17.5 62.5v71v37v37q0 33 19.5 67.5t48 62t62 45t62.5 17.5h4h12l-135 116q-2 2 -3 11.5t-1 17.5v2v7v74q0 28 18 62t46 62.5
t62.5 48t67.5 19.5h26h116h24h126h16q33 0 67.5 -19.5t62.5 -48t46 -62.5t18 -62v-22v-40v-19q0 -33 -19.5 -67.5t-48.5 -62.5t-63 -45.5t-63 -17.5h-73h-58h-106l379 -326q5 13 9.5 26t4.5 25v32v60v5q0 9 6 16t16 7t16.5 -7t6.5 -16v-5v-60v-48q0 -15 -5 -33t-16 -35z
M332 280h46h115h58h57q25 0 53.5 14.5t53 37.5t40.5 52.5t16 58.5v3v40v6q0 25 -14.5 53.5t-38 52.5t-52.5 40t-58 16h-126h-24h-116h-11q-29 0 -58 -16t-52 -40t-37.5 -52.5t-14.5 -53.5v-71zM616 -203q34 0 67.5 21t56.5 51l-424 365h-55q-25 0 -53.5 -14.5t-52.5 -37.5
t-40 -52t-16 -57v-22v-37v-55q0 -25 14.5 -53.5t37.5 -52.5t52 -40t58 -16h228h87h40z" />
    <glyph glyph-name="equal" unicode="=" horiz-adv-x="505" 
d="M424 140q13 0 21 -9t8 -21t-8 -20.5t-21 -8.5h-346q-11 0 -20 8.5t-9 20.5t9 21t20 9h346zM78 242q-11 0 -20 8t-9 21q0 12 9 20.5t20 8.5h346q13 0 21 -8.5t8 -20.5q0 -13 -8 -21t-21 -8h-346z" />
    <glyph glyph-name="underscore" unicode="_" horiz-adv-x="570" 
d="M491 -250q12 0 20.5 -8.5t8.5 -20.5q0 -13 -8.5 -21.5t-20.5 -8.5h-412q-12 0 -20.5 8.5t-8.5 21.5q0 12 8.5 20.5t20.5 8.5h412v0z" />
    <glyph glyph-name="parenright" unicode=")" horiz-adv-x="451" 
d="M177 804q33 0 72.5 -20.5t73 -53t56 -72.5t22.5 -79v-49v-10v-513v-86q0 -33 -20.5 -72.5t-53 -73.5t-72.5 -56.5t-78 -22.5h-25h-76q-10 0 -18 8t-8 18q0 12 8 20t18 8h76h7q33 0 66.5 18.5t60.5 47t44 61.5t17 63v67v513v10v30q0 34 -18.5 68t-46.5 61t-61 44t-62 17
h-7h-74h-2q-10 0 -18 8t-8 20q0 10 8 18t18 8h2h74h25v0z" />
    <glyph glyph-name="parenleft" unicode="(" horiz-adv-x="451" 
d="M374 -250q11 0 19 -8t8 -20q0 -11 -8 -19t-19 -8h-74h-25q-39 0 -79 22.5t-72.5 56.5t-53 73.5t-20.5 73.5v86v513v9v50q0 39 22.5 79t56 72.5t73 53t73.5 20.5h25h73h1q11 0 19 -8t8 -19t-8 -19t-19 -8h-1h-73h-6q-30 0 -63 -17t-61.5 -44t-47 -61t-18.5 -68v-31v-9
v-513v-68q0 -29 16.5 -62.5t43.5 -61.5t61 -46.5t69 -18.5h6h74v0z" />
    <glyph glyph-name="plus" unicode="+" horiz-adv-x="621" 
d="M547 141q13 0 21 -7.5t8 -21.5q0 -11 -8 -19.5t-21 -8.5h-203v-216q0 -13 -7.5 -21t-21.5 -8q-11 0 -19.5 8t-8.5 21v216h-216q-13 0 -21 8.5t-8 19.5q0 14 8 21.5t21 7.5h216v203q0 13 8.5 21t19.5 8q14 0 21.5 -8t7.5 -21v-203h203v0z" />
    <glyph glyph-name="colon" unicode=":" horiz-adv-x="180" 
d="M89 -138q17 0 29 -12t12 -28v-32q0 -17 -12 -28.5t-29 -11.5q-16 0 -27.5 11.5t-11.5 28.5v32q0 16 11.5 28t27.5 12zM89 -138q17 0 29 -12t12 -28v-32q0 -17 -12 -28.5t-29 -11.5q-16 0 -27.5 11.5t-11.5 28.5v32q0 16 11.5 28t27.5 12zM89 112q17 0 29 -12t12 -28v-32
q0 -17 -12 -28.5t-29 -11.5q-16 0 -27.5 11.5t-11.5 28.5v32q0 16 11.5 28t27.5 12z" />
    <glyph glyph-name="hyphen" unicode="-" horiz-adv-x="426" 
d="M40 218q0 11 5 17.5t13 6.5h313q8 0 13 -6.5t5 -17.5q0 -10 -5 -16.5t-13 -6.5h-313q-8 0 -13 6.5t-5 16.5z" />
    <glyph glyph-name="semicolon" unicode=";" horiz-adv-x="227" 
d="M161 242q14 0 22.5 -9t8.5 -22v-24q0 -12 -8.5 -21t-22.5 -9q-13 0 -21.5 9t-8.5 21v24q0 13 8.5 22t21.5 9zM176 -142q12 -7 15.5 -19t-4.5 -23l-91 -154q-7 -12 -19.5 -15.5t-21.5 4.5q-12 6 -15.5 18.5t3.5 22.5l92 154q7 11 19.5 15t21.5 -3z" />
    <glyph glyph-name="slash" unicode="/" horiz-adv-x="580" 
d="M520 697q9 -4 13 -13.5t-3 -18.5l-440 -901q-5 -9 -14.5 -12.5t-17.5 1.5q-11 5 -14.5 14.5t0.5 18.5l444 900q4 10 13.5 13t18.5 -2z" />
    <glyph glyph-name="comma" unicode="," horiz-adv-x="261" 
d="M189 -143q10 -6 13 -16.5t-4 -20.5l-80 -136q-6 -11 -17.5 -13t-19.5 3q-10 6 -13 17t3 19l81 137q6 9 17.5 12.5t19.5 -2.5z" />
    <glyph glyph-name="quotesingle" unicode="'" horiz-adv-x="86" 
d="M42 700q16 0 16 -16v-140q0 -15 -16 -15q-6 0 -11 4t-5 11v140q0 7 5 11.5t11 4.5z" />
    <glyph glyph-name="braceleft" unicode="{" horiz-adv-x="227" 
d="M152 -201q11 0 17.5 -7.5t6.5 -17.5q0 -11 -6.5 -17.5t-17.5 -6.5h-78q-10 0 -17 6.5t-7 17.5v901q0 11 7 18t17 7h78q11 0 17.5 -7t6.5 -18q0 -10 -6.5 -17t-17.5 -7h-53v-852h53v0z" />
    <glyph glyph-name="braceright" unicode="}" horiz-adv-x="226" 
d="M146 700q11 0 18 -7t7 -18v-900q0 -25 -25 -25h-77q-10 0 -16.5 7t-6.5 18q0 10 6.5 16.5t16.5 6.5h54v853h-54q-10 0 -16.5 7t-6.5 17q0 11 6.5 18t16.5 7h77v0z" />
    <glyph glyph-name="bar" unicode="|" horiz-adv-x="158" 
d="M78 750q11 0 18 -7t7 -18v-950q0 -11 -7 -18t-18 -7t-17.5 7t-6.5 18v950q0 11 6.5 18t17.5 7z" />
    <glyph glyph-name="backslash" unicode="\" horiz-adv-x="584" 
d="M534 -214q4 -9 0.5 -18.5t-14.5 -14.5q-8 -5 -17.5 -1.5t-14.5 12.5l-440 901q-7 9 -3 18.5t13 13.5q9 5 18.5 2t13.5 -13l444 -900v0z" />
    <glyph glyph-name="ellipsis" unicode="&#x2026;" horiz-adv-x="540" 
d="M89 -138q17 0 29 -12t12 -28v-32q0 -17 -12 -28.5t-29 -11.5q-16 0 -27.5 11.5t-11.5 28.5v32q0 16 11.5 28t27.5 12zM269 -138q17 0 29 -12t12 -28v-32q0 -17 -12 -28.5t-29 -11.5q-16 0 -27.5 11.5t-11.5 28.5v32q0 16 11.5 28t27.5 12zM449 -138q17 0 29 -12t12 -28
v-32q0 -17 -12 -28.5t-29 -11.5q-16 0 -27.5 11.5t-11.5 28.5v32q0 16 11.5 28t27.5 12z" />
    <glyph glyph-name="asciicircum" unicode="^" horiz-adv-x="431" 
d="M397 351q5 -17 -7 -24q-6 -4 -13 -2t-9 7l-117 207q-12 14 -22.5 16.5t-19.5 -1t-15 -9t-8 -8.5l-115 -204q-2 -6 -9 -8t-13 2q-5 4 -7 10t2 14l160 285q4 8 15 8t16 -8l162 -285v0z" />
    <glyph glyph-name="acircumflex" unicode="&#xe2;" horiz-adv-x="622" 
d="M79 242q-12 0 -20.5 8.5t-8.5 20.5t8.5 20.5t20.5 8.5h406q12 0 20.5 -8.5t8.5 -20.5t-8.5 -20.5t-20.5 -8.5h-406zM542 171q13 0 21.5 -8.5t8.5 -20.5v-363q0 -11 -8.5 -20t-21.5 -9h-318h-15h-14q-44 0 -72 10.5t-44 29.5t-22.5 45t-6.5 58v2v29v1q0 33 6.5 59.5
t22.5 45t44 29t72 10.5h29h290v73q0 12 8.5 20.5t19.5 8.5zM230 -191h284v203h-284h-6h-29h-15q-27 0 -41.5 -13.5t-21 -29.5t-8 -30t-1.5 -15v-29q0 -2 1.5 -15.5t8 -29t21 -28.5t41.5 -13h29h15h6zM415 356q5 -13 -5 -18q-4 -3 -9 -2t-7 5l-86 81q-8 10 -16 12t-14.5 0
t-11.5 -6.5t-6 -6.5l-84 -79q-2 -5 -7 -6t-9 2q-10 5 -4 18l117 138q3 6 11 6t12 -6z" />
    <glyph glyph-name="ecircumflex" unicode="&#xea;" horiz-adv-x="665" 
d="M542 -193q12 0 20.5 -8t8.5 -21q0 -11 -8.5 -19.5t-20.5 -8.5h-347h-26q-31 0 -53 11.5t-36.5 31.5t-22 46.5t-7.5 55.5v246q0 11 8.5 20t20.5 9t20 -9t8 -20v-246q1 -25 9 -44q7 -17 21.5 -30.5t42.5 -13.5h362zM615 129q0 -43 -10.5 -71t-29.5 -44t-45.5 -22.5
t-58.5 -6.5h-202q-12 0 -21 8.5t-9 20.5q0 11 9 19.5t21 8.5h201q24 1 43 9q16 7 29.5 21.5t13.5 41.5v41q-1 24 -9 43q-7 17 -21.5 30.5t-41.5 13.5h-348q-11 0 -20 8.5t-9 20.5t9 20.5t20 8.5h305h43q63 0 97 -38t34 -104v-29zM456 356q5 -13 -5 -18q-4 -3 -9 -2t-7 5
l-86 81q-8 10 -16 12t-14.5 0t-11.5 -6.5t-6 -6.5l-84 -79q-2 -5 -7 -6t-9 2q-10 5 -4 18l117 138q3 6 11 6t12 -6z" />
    <glyph glyph-name="icircumflex" unicode="&#xee;" horiz-adv-x="590" 
d="M304 300q12 0 20.5 -8.5t8.5 -20.5v-491q0 -13 -8.5 -21.5t-20.5 -8.5t-20.5 8.5t-8.5 21.5v491q0 12 8.5 20.5t20.5 8.5zM426 356q5 -13 -5 -18q-4 -3 -9 -2t-7 5l-86 81q-8 10 -16 12t-14.5 0t-11.5 -6.5t-6 -6.5l-84 -79q-2 -5 -7 -6t-9 2q-10 5 -4 18l117 138
q3 6 11 6t12 -6z" />
    <glyph glyph-name="ocircumflex" unicode="&#xf4;" horiz-adv-x="600" 
d="M560 -105q-2 -69 -31 -103.5t-101 -41.5h-13h-30h-157h-14h-15q-43 0 -71 10.5t-44 29t-22.5 45t-7.5 59.5v277q0 11 8.5 19.5t20.5 8.5t20 -8.5t8 -19.5v-276q1 -25 9 -44q7 -17 21.5 -30.5t41.5 -13.5h31h14h6h146h5h43q27 0 42 13.5t22 30.5q8 19 9 44v260
q-1 25 -9 44q-7 17 -22 30.5t-42 13.5h-288q-12 0 -20.5 8t-8.5 20t8.5 20.5t20.5 8.5h245h23h7q43 0 71 -10t44.5 -29t23 -45.5t6.5 -59.5v-261zM426 356q5 -13 -5 -18q-4 -3 -9 -2t-7 5l-86 81q-8 10 -16 12t-14.5 0t-11.5 -6.5t-6 -6.5l-84 -79q-2 -5 -7 -6t-9 2
q-10 5 -4 18l117 138q3 6 11 6t12 -6z" />
    <glyph glyph-name="grave" unicode="`" horiz-adv-x="306" 
d="M263 472q7 -11 5 -22t-13 -18q-8 -5 -20.5 -2t-20.5 14l-195 266q-6 10 -4.5 21.5t15.5 18.5q15 7 23.5 2.5t14.5 -13.5l195 -267v0z" />
    <glyph glyph-name="agrave" unicode="&#xe0;" horiz-adv-x="618" 
d="M79 242q-12 0 -20.5 8.5t-8.5 20.5t8.5 20.5t20.5 8.5h406q12 0 20.5 -8.5t8.5 -20.5t-8.5 -20.5t-20.5 -8.5h-406zM542 171q13 0 21.5 -8.5t8.5 -20.5v-363q0 -11 -8.5 -20t-21.5 -9h-318h-15h-14q-44 0 -72 10.5t-44 29.5t-22.5 45t-6.5 58v2v29v1q0 33 6.5 59.5
t22.5 45t44 29t72 10.5h29h290v73q0 12 8.5 20.5t19.5 8.5zM230 -191h284v203h-284h-6h-29h-15q-27 0 -41.5 -13.5t-21 -29.5t-8 -30t-1.5 -15v-29q0 -2 1.5 -15.5t8 -29t21 -28.5t41.5 -13h29h15h6zM188 452q-8 9 -6 20t12 19q9 8 20 7.5t19 -10.5l84 -104q8 -10 7 -22.5
t-10 -20.5q-10 -8 -22.5 -5.5t-20.5 11.5z" />
    <glyph glyph-name="egrave" unicode="&#xe8;" horiz-adv-x="665" 
d="M542 -193q12 0 20.5 -8t8.5 -21q0 -11 -8.5 -19.5t-20.5 -8.5h-347h-26q-31 0 -53 11.5t-36.5 31.5t-22 46.5t-7.5 55.5v246q0 11 8.5 20t20.5 9t20 -9t8 -20v-246q1 -25 9 -44q7 -17 21.5 -30.5t42.5 -13.5h362zM615 129q0 -43 -10.5 -71t-29.5 -44t-45.5 -22.5
t-58.5 -6.5h-202q-12 0 -21 8.5t-9 20.5q0 11 9 19.5t21 8.5h201q24 1 43 9q16 7 29.5 21.5t13.5 41.5v41q-1 24 -9 43q-7 17 -21.5 30.5t-41.5 13.5h-348q-11 0 -20 8.5t-9 20.5t9 20.5t20 8.5h305h43q63 0 97 -38t34 -104v-29zM229 452q-8 9 -6 20t12 19q9 8 20 7.5
t19 -10.5l84 -104q8 -10 7 -22.5t-10 -20.5q-10 -8 -22.5 -5.5t-20.5 11.5z" />
    <glyph glyph-name="igrave" unicode="&#xec;" horiz-adv-x="248" 
d="M182 300q12 0 20.5 -8.5t8.5 -20.5v-491q0 -13 -8.5 -21.5t-20.5 -8.5t-20.5 8.5t-8.5 21.5v491q0 12 8.5 20.5t20.5 8.5zM56 452q-8 9 -6 20t12 19q9 8 20 7.5t19 -10.5l84 -104q8 -10 7 -22.5t-10 -20.5q-10 -8 -22.5 -5.5t-20.5 11.5z" />
    <glyph glyph-name="ograve" unicode="&#xf2;" horiz-adv-x="593" 
d="M543 -105q-2 -69 -31 -103.5t-101 -41.5h-13h-30h-144h-14h-15q-43 0 -71 10.5t-44 29t-22.5 45t-7.5 59.5v277q0 11 8.5 19.5t20.5 8.5t20 -8.5t8 -19.5v-276q1 -25 9 -44q7 -17 21.5 -30.5t41.5 -13.5h31h14h6h133h5h43q27 0 42 13.5t22 30.5q8 19 9 44v260
q-1 25 -9 44q-7 17 -22 30.5t-42 13.5h-275q-12 0 -20.5 8t-8.5 20t8.5 20.5t20.5 8.5h232h23h7q43 0 71 -10t44.5 -29t23 -45.5t6.5 -59.5v-261zM188 452q-8 9 -6 20t12 19q9 8 20 7.5t19 -10.5l84 -104q8 -10 7 -22.5t-10 -20.5q-10 -8 -22.5 -5.5t-20.5 11.5z" />
    <glyph glyph-name="ugrave" unicode="&#xf9;" horiz-adv-x="592" 
d="M513 300q12 0 20.5 -8.5t8.5 -20.5v-376q0 -33 -6.5 -59.5t-22.5 -45.5t-44 -29.5t-71 -10.5h-12h-18h-144h-29h-15q-57 0 -90.5 32.5t-39.5 92.5v6v390q0 12 8.5 20.5t20.5 8.5t20.5 -8.5t8.5 -20.5v-376q1 -25 9 -44q7 -17 21.5 -30t41.5 -13h44h6h138h18h16h2h8
q27 0 41.5 13t21.5 30q8 19 9 44v376q0 12 8.5 20.5t20.5 8.5zM178 452q-8 9 -6 20t12 19q9 8 20 7.5t19 -10.5l84 -104q8 -10 7 -22.5t-10 -20.5q-10 -8 -22.5 -5.5t-20.5 11.5z" />
    <glyph glyph-name="ucircumflex" unicode="&#xfb;" horiz-adv-x="612" 
d="M535 300q12 0 20.5 -8.5t8.5 -20.5v-376q0 -33 -6.5 -59.5t-22.5 -45.5t-44 -29.5t-71 -10.5h-12h-18h-168h-29h-15q-57 0 -90.5 32.5t-39.5 92.5v6v390q0 12 8.5 20.5t20.5 8.5t20.5 -8.5t8.5 -20.5v-376q1 -25 9 -44q7 -17 21.5 -30t41.5 -13h44h6h162h18h16h2h8
q27 0 41.5 13t21.5 30q8 19 9 44v376q0 12 8.5 20.5t20.5 8.5zM426 356q5 -13 -5 -18q-4 -3 -9 -2t-7 5l-86 81q-8 10 -16 12t-14.5 0t-11.5 -6.5t-6 -6.5l-84 -79q-2 -5 -7 -6t-9 2q-10 5 -4 18l117 138q3 6 11 6t12 -6z" />
    <glyph glyph-name="udieresis" unicode="&#xfc;" horiz-adv-x="592" 
d="M535 300q12 0 20.5 -8.5t8.5 -20.5v-376q0 -33 -6.5 -59.5t-22.5 -45.5t-44 -29.5t-71 -10.5h-12h-18h-168h-29h-15q-57 0 -90.5 32.5t-39.5 92.5v6v390q0 12 8.5 20.5t20.5 8.5t20.5 -8.5t8.5 -20.5v-376q1 -25 9 -44q7 -17 21.5 -30t41.5 -13h44h6h162h18h16h2h8
q27 0 41.5 13t21.5 30q8 19 9 44v376q0 12 8.5 20.5t20.5 8.5zM210 460q17 0 29 -12t12 -28v-32q0 -17 -12 -28.5t-29 -11.5q-16 0 -27.5 11.5t-11.5 28.5v32q0 16 11.5 28t27.5 12zM390 460q17 0 29 -12t12 -28v-32q0 -17 -12 -28.5t-29 -11.5q-16 0 -27.5 11.5t-11.5 28.5
v32q0 16 11.5 28t27.5 12z" />
    <glyph glyph-name="oacute" unicode="&#xf3;" horiz-adv-x="593" 
d="M560 -105q-2 -69 -31 -103.5t-101 -41.5h-13h-30h-157h-14h-15q-43 0 -71 10.5t-44 29t-22.5 45t-7.5 59.5v277q0 11 8.5 19.5t20.5 8.5t20 -8.5t8 -19.5v-276q1 -25 9 -44q7 -17 21.5 -30.5t41.5 -13.5h31h14h6h146h5h43q27 0 42 13.5t22 30.5q8 19 9 44v260
q-1 25 -9 44q-7 17 -22 30.5t-42 13.5h-288q-12 0 -20.5 8t-8.5 20t8.5 20.5t20.5 8.5h245h23h7q43 0 71 -10t44.5 -29t23 -45.5t6.5 -59.5v-261zM301 359q-8 -9 -19 -7t-19 11q-8 8 -8.5 20t9.5 20l100 88q9 8 22 7.5t21 -8.5q8 -9 6 -21.5t-10 -21.5z" />
    <glyph glyph-name="uacute" unicode="&#xfa;" horiz-adv-x="592" 
d="M513 300q12 0 20.5 -8.5t8.5 -20.5v-376q0 -33 -6.5 -59.5t-22.5 -45.5t-44 -29.5t-71 -10.5h-12h-18h-144h-29h-15q-57 0 -90.5 32.5t-39.5 92.5v6v390q0 12 8.5 20.5t20.5 8.5t20.5 -8.5t8.5 -20.5v-376q1 -25 9 -44q7 -17 21.5 -30t41.5 -13h44h6h138h18h16h2h8
q27 0 41.5 13t21.5 30q8 19 9 44v376q0 12 8.5 20.5t20.5 8.5zM288 359q-8 -9 -19 -7t-19 11q-8 8 -8.5 20t9.5 20l100 88q9 8 22 7.5t21 -8.5q8 -9 6 -21.5t-10 -21.5z" />
    <glyph glyph-name="aacute" unicode="&#xe1;" horiz-adv-x="618" 
d="M79 242q-12 0 -20.5 8.5t-8.5 20.5t8.5 20.5t20.5 8.5h406q12 0 20.5 -8.5t8.5 -20.5t-8.5 -20.5t-20.5 -8.5h-406zM542 171q13 0 21.5 -8.5t8.5 -20.5v-363q0 -11 -8.5 -20t-21.5 -9h-318h-15h-14q-44 0 -72 10.5t-44 29.5t-22.5 45t-6.5 58v2v29v1q0 33 6.5 59.5
t22.5 45t44 29t72 10.5h29h290v73q0 12 8.5 20.5t19.5 8.5zM230 -191h284v203h-284h-6h-29h-15q-27 0 -41.5 -13.5t-21 -29.5t-8 -30t-1.5 -15v-29q0 -2 1.5 -15.5t8 -29t21 -28.5t41.5 -13h29h15h6zM301 359q-8 -9 -19 -7t-19 11q-8 8 -8.5 20t9.5 20l100 88q9 8 22 7.5
t21 -8.5q8 -9 6 -21.5t-10 -21.5z" />
    <glyph glyph-name="iacute" unicode="&#xed;" horiz-adv-x="279" 
d="M79 300q12 0 20.5 -8.5t8.5 -20.5v-491q0 -13 -8.5 -21.5t-20.5 -8.5t-20.5 8.5t-8.5 21.5v491q0 12 8.5 20.5t20.5 8.5zM117 359q-8 -9 -19 -7t-19 11q-8 8 -8.5 20t9.5 20l100 88q9 8 22 7.5t21 -8.5q8 -9 6 -21.5t-10 -21.5z" />
    <glyph glyph-name="divide" unicode="&#xf7;" horiz-adv-x="448" 
d="M51 83q0 10 5 16.5t13 6.5h310q8 0 13 -6.5t5 -16.5q0 -9 -5 -15.5t-13 -6.5h-310q-8 0 -13 6.5t-5 15.5zM219 5q17 0 29 -12t12 -28v-32q0 -17 -12 -28.5t-29 -11.5q-16 0 -27.5 11.5t-11.5 28.5v32q0 16 11.5 28t27.5 12zM219 277q17 0 29 -12t12 -28v-32
q0 -17 -12 -28.5t-29 -11.5q-16 0 -27.5 11.5t-11.5 28.5v32q0 16 11.5 28t27.5 12z" />
    <glyph glyph-name="quotedblbase" unicode="&#x201e;" horiz-adv-x="199" 
d="M49 700q6 0 10.5 -4.5t4.5 -11.5v-140q0 -7 -4.5 -11t-10.5 -4q-16 0 -16 15v140q0 16 16 16zM150 700q16 0 16 -16v-140q0 -15 -16 -15q-6 0 -11 4t-5 11v140q0 7 5 11.5t11 4.5z" />
    <glyph glyph-name="quoteleft" unicode="&#x2018;" horiz-adv-x="833" 
 />
    <glyph glyph-name="Agrave" unicode="&#xc0;" horiz-adv-x="954" 
d="M894 -218q4 -9 -0.5 -18t-12.5 -12q-9 -4 -17.5 -0.5t-12.5 13.5l-293 738q-14 28 -32 49t-46 21q-24 0 -44 -21.5t-35 -48.5l-298 -738q-4 -9 -13 -13t-17 0q-9 4 -12.5 12.5t-0.5 18.5l278 688l37 102q13 35 30 63q14 24 33 44t42 20q22 0 41.5 -20t33.5 -44
q17 -28 30 -63l43 -122zM484 777q8 -12 5.5 -24t-14.5 -20q-10 -5 -23.5 -1.5t-21.5 15.5l-214 385q-5 11 -3 23.5t17 19.5q16 8 25.5 3.5t16.5 -14.5z" />
    <glyph glyph-name="Aacute" unicode="&#xc1;" horiz-adv-x="954" 
d="M887 -218q4 -9 -0.5 -18t-12.5 -12q-9 -4 -17.5 -0.5t-12.5 13.5l-293 738q-14 28 -32 49t-46 21q-24 0 -44 -21.5t-35 -48.5l-298 -738q-4 -9 -13 -13t-17 0q-9 4 -12.5 12.5t-0.5 18.5l278 688l37 102q13 35 30 63q14 24 33 44t42 20q22 0 41.5 -20t33.5 -44
q17 -28 30 -63l43 -122zM719 1184q15 -7 17 -19.5t-3 -23.5l-214 -385q-8 -12 -21.5 -15.5t-23.5 1.5q-12 8 -14.5 20t5.5 24l212 387q7 10 16.5 14.5t25.5 -3.5z" />
    <glyph glyph-name="Acircumflex" unicode="&#xc2;" horiz-adv-x="950" 
d="M884 -218q4 -9 -0.5 -18t-12.5 -12q-9 -4 -17.5 -0.5t-12.5 13.5l-293 738q-14 28 -32 49t-46 21q-24 0 -44 -21.5t-35 -48.5l-298 -738q-4 -9 -13 -13t-17 0q-9 4 -12.5 12.5t-0.5 18.5l278 688l37 102q13 35 30 63q14 24 33 44t42 20q22 0 41.5 -20t33.5 -44
q17 -28 30 -63l43 -122zM717 728q7 -24 -10 -35q-8 -5 -18.5 -3t-13.5 10l-167 297q-17 20 -32.5 23.5t-28 -1t-21.5 -13t-12 -12.5l-165 -292q-3 -9 -13 -11.5t-18 2.5t-10.5 14.5t2.5 20.5l230 408q3 6 8.5 9t12.5 3t13.5 -3t9.5 -9z" />
    <glyph glyph-name="Atilde" unicode="&#xc3;" horiz-adv-x="930" 
d="M881 -218q4 -9 -0.5 -18t-12.5 -12q-9 -4 -17.5 -0.5t-12.5 13.5l-293 738q-14 28 -32 49t-46 21q-24 0 -44 -21.5t-35 -48.5l-298 -738q-4 -9 -13 -13t-17 0q-9 4 -12.5 12.5t-0.5 18.5l278 688l37 102q13 35 30 63q14 24 33 44t42 20q22 0 41.5 -20t33.5 -44
q17 -28 30 -63l43 -122zM678 805q12 0 20.5 -8.5t8.5 -20.5q0 -13 -8.5 -21.5t-20.5 -8.5h-412q-12 0 -20.5 8.5t-8.5 21.5q0 12 8.5 20.5t20.5 8.5h412z" />
    <glyph glyph-name="Adieresis" unicode="&#xc4;" horiz-adv-x="935" 
d="M884 -218q4 -9 -0.5 -18t-12.5 -12q-9 -4 -17.5 -0.5t-12.5 13.5l-293 738q-14 28 -32 49t-46 21q-24 0 -44 -21.5t-35 -48.5l-298 -738q-4 -9 -13 -13t-17 0q-9 4 -12.5 12.5t-0.5 18.5l278 688l37 102q13 35 30 63q14 24 33 44t42 20q22 0 41.5 -20t33.5 -44
q17 -28 30 -63l43 -122zM376 855q17 0 29 -12t12 -28v-32q0 -17 -12 -28.5t-29 -11.5q-16 0 -27.5 11.5t-11.5 28.5v32q0 16 11.5 28t27.5 12zM556 855q17 0 29 -12t12 -28v-32q0 -17 -12 -28.5t-29 -11.5q-16 0 -27.5 11.5t-11.5 28.5v32q0 16 11.5 28t27.5 12z" />
    <glyph glyph-name="questiondown" unicode="&#xbf;" horiz-adv-x="704" 
d="M244 -247q-30 0 -64 17.5t-63 45.5t-48.5 62.5t-19.5 67.5v4v45v38q0 29 17.5 63t45.5 63t63 48t69 19h11h4h35q22 0 34 11t17 25q6 16 7 36v283q0 10 6.5 16.5t16.5 6.5q9 0 16 -6.5t7 -16.5v-294v-5q-3 -45 -25 -72t-79 -29h-12h-23q-30 0 -59 -16t-52.5 -40.5t-38 -53
t-14.5 -53.5v-23v-34q0 -29 16 -58t40.5 -52t53.5 -37.5t54 -14.5h128h35h34q25 0 53.5 14.5t52.5 37.5t40 52t16 58v11v18v5q2 8 8.5 13t14.5 5q9 0 15 -5t8 -13v-5v-18v-26q0 -33 -19 -67.5t-48 -62.5t-63 -45.5t-63 -17.5h-49h-35h-143zM375 638q-10 0 -16.5 6.5
t-6.5 17.5v18q0 10 6.5 16.5t16.5 6.5q9 0 16 -6.5t7 -16.5v-18q0 -11 -7 -17.5t-16 -6.5z" />
    <glyph glyph-name="Egrave" unicode="&#xc8;" horiz-adv-x="784" 
d="M594 248q10 0 16.5 -6.5t6.5 -16.5t-6.5 -16.5t-16.5 -6.5h-335q-11 0 -17.5 6.5t-6.5 16.5t6.5 16.5t17.5 6.5h335zM710 -204q11 0 17.5 -6.5t6.5 -16.5t-6.5 -16.5t-17.5 -6.5h-266h-70h-132q-29 0 -62.5 18t-62 45.5t-48 61.5t-19.5 67v109v36v289v23v109q0 28 18 62
t45.5 62.5t61.5 48t67 19.5h132h12h324q11 0 17.5 -6.5t6.5 -16.5t-6.5 -16.5t-17.5 -6.5h-324h-12h-115q-29 0 -58.5 -16t-52.5 -40.5t-37.5 -53t-14.5 -53.5v-92v-23v-289v-36v-93q0 -29 16 -58t40.5 -52t53 -37.5t53.5 -14.5h115h70h266zM474 777q8 -12 5.5 -24
t-14.5 -20q-10 -5 -23.5 -1.5t-21.5 15.5l-214 385q-5 11 -3 23.5t17 19.5q16 8 25.5 3.5t16.5 -14.5z" />
    <glyph glyph-name="Eacute" unicode="&#xc9;" horiz-adv-x="784" 
d="M594 248q10 0 16.5 -6.5t6.5 -16.5t-6.5 -16.5t-16.5 -6.5h-335q-11 0 -17.5 6.5t-6.5 16.5t6.5 16.5t17.5 6.5h335zM710 -204q11 0 17.5 -6.5t6.5 -16.5t-6.5 -16.5t-17.5 -6.5h-266h-70h-132q-29 0 -62.5 18t-62 45.5t-48 61.5t-19.5 67v109v36v289v23v109q0 28 18 62
t45.5 62.5t61.5 48t67 19.5h132h12h324q11 0 17.5 -6.5t6.5 -16.5t-6.5 -16.5t-17.5 -6.5h-324h-12h-115q-29 0 -58.5 -16t-52.5 -40.5t-37.5 -53t-14.5 -53.5v-92v-23v-289v-36v-93q0 -29 16 -58t40.5 -52t53 -37.5t53.5 -14.5h115h70h266zM643 1184q15 -7 17 -19.5
t-3 -23.5l-214 -385q-8 -12 -21.5 -15.5t-23.5 1.5q-12 8 -14.5 20t5.5 24l212 387q7 10 16.5 14.5t25.5 -3.5z" />
    <glyph glyph-name="Ecircumflex" unicode="&#xca;" horiz-adv-x="784" 
d="M594 248q10 0 16.5 -6.5t6.5 -16.5t-6.5 -16.5t-16.5 -6.5h-335q-11 0 -17.5 6.5t-6.5 16.5t6.5 16.5t17.5 6.5h335zM710 -204q11 0 17.5 -6.5t6.5 -16.5t-6.5 -16.5t-17.5 -6.5h-266h-70h-132q-29 0 -62.5 18t-62 45.5t-48 61.5t-19.5 67v109v36v289v23v109q0 28 18 62
t45.5 62.5t61.5 48t67 19.5h132h12h324q11 0 17.5 -6.5t6.5 -16.5t-6.5 -16.5t-17.5 -6.5h-324h-12h-115q-29 0 -58.5 -16t-52.5 -40.5t-37.5 -53t-14.5 -53.5v-92v-23v-289v-36v-93q0 -29 16 -58t40.5 -52t53 -37.5t53.5 -14.5h115h70h266zM682 778q7 -24 -10 -35
q-8 -5 -18.5 -3t-13.5 10l-167 297q-17 20 -32.5 23.5t-28 -1t-21.5 -13t-12 -12.5l-165 -292q-3 -9 -13 -11.5t-18 2.5t-10.5 14.5t2.5 20.5l230 408q3 6 8.5 9t12.5 3t13.5 -3t9.5 -9z" />
    <glyph glyph-name="Edieresis" unicode="&#xcb;" horiz-adv-x="784" 
d="M594 248q10 0 16.5 -6.5t6.5 -16.5t-6.5 -16.5t-16.5 -6.5h-335q-11 0 -17.5 6.5t-6.5 16.5t6.5 16.5t17.5 6.5h335zM710 -204q11 0 17.5 -6.5t6.5 -16.5t-6.5 -16.5t-17.5 -6.5h-266h-70h-132q-29 0 -62.5 18t-62 45.5t-48 61.5t-19.5 67v109v36v289v23v109q0 28 18 62
t45.5 62.5t61.5 48t67 19.5h132h12h324q11 0 17.5 -6.5t6.5 -16.5t-6.5 -16.5t-17.5 -6.5h-324h-12h-115q-29 0 -58.5 -16t-52.5 -40.5t-37.5 -53t-14.5 -53.5v-92v-23v-289v-36v-93q0 -29 16 -58t40.5 -52t53 -37.5t53.5 -14.5h115h70h266zM355 855q17 0 29 -12t12 -28v-32
q0 -17 -12 -28.5t-29 -11.5q-16 0 -27.5 11.5t-11.5 28.5v32q0 16 11.5 28t27.5 12zM535 855q17 0 29 -12t12 -28v-32q0 -17 -12 -28.5t-29 -11.5q-16 0 -27.5 11.5t-11.5 28.5v32q0 16 11.5 28t27.5 12z" />
    <glyph glyph-name="Igrave" unicode="&#xcc;" horiz-adv-x="374" 
d="M296 700q10 0 16.5 -6.5t6.5 -16.5v-904q0 -9 -6.5 -16t-16.5 -7t-16.5 7t-6.5 16v904q0 10 6.5 16.5t16.5 6.5zM321 792q8 -12 5.5 -24t-14.5 -20q-10 -5 -23.5 -1.5t-21.5 15.5l-214 385q-5 11 -3 23.5t17 19.5q16 8 25.5 3.5t16.5 -14.5z" />
    <glyph glyph-name="Iacute" unicode="&#xcd;" horiz-adv-x="146" 
d="M73 700q10 0 16.5 -6.5t6.5 -16.5v-904q0 -9 -6.5 -16t-16.5 -7t-16.5 7t-6.5 16v904q0 10 6.5 16.5t16.5 6.5zM318 1184q15 -7 17 -19.5t-3 -23.5l-214 -385q-8 -12 -21.5 -15.5t-23.5 1.5q-12 8 -14.5 20t5.5 24l212 387q7 10 16.5 14.5t25.5 -3.5z" />
    <glyph glyph-name="Icircumflex" unicode="&#xce;" horiz-adv-x="146" 
d="M73 700q10 0 16.5 -6.5t6.5 -16.5v-904q0 -9 -6.5 -16t-16.5 -7t-16.5 7t-6.5 16v904q0 10 6.5 16.5t16.5 6.5zM324 762q7 -24 -10 -35q-8 -5 -18.5 -3t-13.5 10l-167 297q-17 20 -32.5 23.5t-28 -1t-21.5 -13t-12 -12.5l-165 -292q-3 -9 -13 -11.5t-18 2.5t-10.5 14.5
t2.5 20.5l230 408q3 6 8.5 9t12.5 3t13.5 -3t9.5 -9z" />
    <glyph glyph-name="Idieresis" unicode="&#xcf;" horiz-adv-x="146" 
d="M73 700q10 0 16.5 -6.5t6.5 -16.5v-904q0 -9 -6.5 -16t-16.5 -7t-16.5 7t-6.5 16v904q0 10 6.5 16.5t16.5 6.5zM-24 855q17 0 29 -12t12 -28v-32q0 -17 -12 -28.5t-29 -11.5q-16 0 -27.5 11.5t-11.5 28.5v32q0 16 11.5 28t27.5 12zM156 855q17 0 29 -12t12 -28v-32
q0 -17 -12 -28.5t-29 -11.5q-16 0 -27.5 11.5t-11.5 28.5v32q0 16 11.5 28t27.5 12z" />
    <glyph glyph-name="Ntilde" unicode="&#xd1;" horiz-adv-x="875" 
d="M802 700q10 0 16.5 -6.5t6.5 -17.5v-626v-107v-48q-1 -38 -10 -69q-8 -26 -23 -49t-44 -26q-19 -2 -35.5 6t-29 20.5t-21.5 26t-14 22.5l-414 710q-38 55 -84 39q-20 -7 -35.5 -28t-17.5 -48v-726q0 -10 -7 -16.5t-17 -6.5t-16.5 6.5t-6.5 16.5v623v12v159q1 30 7 56
q5 22 16.5 43t34.5 30q32 9 58 -3.5t44 -31.5q21 -22 38 -54l45 -81l332 -564q5 -9 10.5 -19t10.5 -18q15 -26 36 -38.5t43 -8.5q44 7 53 58v740q0 11 7 17.5t17 6.5zM681 805q12 0 20.5 -8.5t8.5 -20.5q0 -13 -8.5 -21.5t-20.5 -8.5h-412q-12 0 -20.5 8.5t-8.5 21.5
q0 12 8.5 20.5t20.5 8.5h412z" />
    <glyph glyph-name="Ograve" unicode="&#xd2;" 
d="M564 701q29 0 62.5 -18t62.5 -46t48.5 -62.5t19.5 -67.5v-61v-82v-290v-23v-108q0 -29 -17.5 -62.5t-45.5 -62.5t-62.5 -48.5t-67.5 -19.5h-120h-23h-178q-29 0 -62.5 17.5t-62.5 45.5t-48.5 62.5t-19.5 67.5v108v35v290v24v107q0 29 17.5 63t45.5 63t62.5 48.5
t67.5 19.5h120h23h178zM711 446v45q0 29 -16 58t-40 52.5t-53 38t-54 14.5h-162h-23h-104q-29 0 -58.5 -16t-52.5 -40t-37.5 -53t-14.5 -54v-91v-24v-290v-35v-92q0 -29 16 -58.5t40 -52.5t52.5 -37.5t54.5 -14.5h162h23h104q29 0 58 16t52.5 40t38 52.5t14.5 54.5v115v290
v82zM474 777q8 -12 5.5 -24t-14.5 -20q-10 -5 -23.5 -1.5t-21.5 15.5l-214 385q-5 11 -3 23.5t17 19.5q16 8 25.5 3.5t16.5 -14.5z" />
    <glyph glyph-name="Oacute" unicode="&#xd3;" 
d="M564 701q29 0 62.5 -18t62.5 -46t48.5 -62.5t19.5 -67.5v-61v-82v-290v-23v-108q0 -29 -17.5 -62.5t-45.5 -62.5t-62.5 -48.5t-67.5 -19.5h-120h-23h-178q-29 0 -62.5 17.5t-62.5 45.5t-48.5 62.5t-19.5 67.5v108v35v290v24v107q0 29 17.5 63t45.5 63t62.5 48.5
t67.5 19.5h120h23h178zM711 446v45q0 29 -16 58t-40 52.5t-53 38t-54 14.5h-162h-23h-104q-29 0 -58.5 -16t-52.5 -40t-37.5 -53t-14.5 -54v-91v-24v-290v-35v-92q0 -29 16 -58.5t40 -52.5t52.5 -37.5t54.5 -14.5h162h23h104q29 0 58 16t52.5 40t38 52.5t14.5 54.5v115v290
v82zM625 1184q15 -7 17 -19.5t-3 -23.5l-214 -385q-8 -12 -21.5 -15.5t-23.5 1.5q-12 8 -14.5 20t5.5 24l212 387q7 10 16.5 14.5t25.5 -3.5z" />
    <glyph glyph-name="Ocircumflex" unicode="&#xd4;" 
d="M655 775q7 -24 -10 -35q-8 -5 -18.5 -3t-13.5 10l-167 297q-17 20 -32.5 23.5t-28 -1t-21.5 -13t-12 -12.5l-165 -292q-3 -9 -13 -11.5t-18 2.5t-10.5 14.5t2.5 20.5l230 408q3 6 8.5 9t12.5 3t13.5 -3t9.5 -9zM564 701q29 0 62.5 -18t62.5 -46t48.5 -62.5t19.5 -67.5
v-61v-82v-290v-23v-108q0 -29 -17.5 -62.5t-45.5 -62.5t-62.5 -48.5t-67.5 -19.5h-120h-23h-178q-29 0 -62.5 17.5t-62.5 45.5t-48.5 62.5t-19.5 67.5v108v35v290v24v107q0 29 17.5 63t45.5 63t62.5 48.5t67.5 19.5h120h23h178zM711 446v45q0 29 -16 58t-40 52.5t-53 38
t-54 14.5h-162h-23h-104q-29 0 -58.5 -16t-52.5 -40t-37.5 -53t-14.5 -54v-91v-24v-290v-35v-92q0 -29 16 -58.5t40 -52.5t52.5 -37.5t54.5 -14.5h162h23h104q29 0 58 16t52.5 40t38 52.5t14.5 54.5v115v290v82z" />
    <glyph glyph-name="Otilde" unicode="&#xd5;" 
d="M564 701q29 0 62.5 -18t62.5 -46t48.5 -62.5t19.5 -67.5v-61v-82v-290v-23v-108q0 -29 -17.5 -62.5t-45.5 -62.5t-62.5 -48.5t-67.5 -19.5h-120h-23h-178q-29 0 -62.5 17.5t-62.5 45.5t-48.5 62.5t-19.5 67.5v108v35v290v24v107q0 29 17.5 63t45.5 63t62.5 48.5
t67.5 19.5h120h23h178zM711 446v45q0 29 -16 58t-40 52.5t-53 38t-54 14.5h-162h-23h-104q-29 0 -58.5 -16t-52.5 -40t-37.5 -53t-14.5 -54v-91v-24v-290v-35v-92q0 -29 16 -58.5t40 -52.5t52.5 -37.5t54.5 -14.5h162h23h104q29 0 58 16t52.5 40t38 52.5t14.5 54.5v115v290
v82zM597 805q12 0 20.5 -8.5t8.5 -20.5q0 -13 -8.5 -21.5t-20.5 -8.5h-412q-12 0 -20.5 8.5t-8.5 21.5q0 12 8.5 20.5t20.5 8.5h412z" />
    <glyph glyph-name="Odieresis" unicode="&#xd6;" 
d="M564 701q29 0 62.5 -18t62.5 -46t48.5 -62.5t19.5 -67.5v-61v-82v-290v-23v-108q0 -29 -17.5 -62.5t-45.5 -62.5t-62.5 -48.5t-67.5 -19.5h-120h-23h-178q-29 0 -62.5 17.5t-62.5 45.5t-48.5 62.5t-19.5 67.5v108v35v290v24v107q0 29 17.5 63t45.5 63t62.5 48.5
t67.5 19.5h120h23h178zM711 446v45q0 29 -16 58t-40 52.5t-53 38t-54 14.5h-162h-23h-104q-29 0 -58.5 -16t-52.5 -40t-37.5 -53t-14.5 -54v-91v-24v-290v-35v-92q0 -29 16 -58.5t40 -52.5t52.5 -37.5t54.5 -14.5h162h23h104q29 0 58 16t52.5 40t38 52.5t14.5 54.5v115v290
v82zM305 855q17 0 29 -12t12 -28v-32q0 -17 -12 -28.5t-29 -11.5q-16 0 -27.5 11.5t-11.5 28.5v32q0 16 11.5 28t27.5 12zM485 855q17 0 29 -12t12 -28v-32q0 -17 -12 -28.5t-29 -11.5q-16 0 -27.5 11.5t-11.5 28.5v32q0 16 11.5 28t27.5 12z" />
    <glyph glyph-name="multiply" unicode="&#xd7;" horiz-adv-x="833" 
d="M101 498q-10 0 -17 7t-7 18q0 10 7 17t17 7h190h24q70 0 97 -33q14 16 37 24.5t59 8.5h26h203q10 0 16.5 -7t6.5 -17q0 -11 -6.5 -18t-16.5 -7h-198h-5h-26h-11q-23 0 -35 -11.5t-18 -25.5q-7 -16 -8 -36v-36q0 -11 -7 -17.5t-17 -6.5q-8 0 -15.5 6.5t-7.5 17.5v36
q-1 20 -8 36q-6 14 -18.5 25.5t-35.5 11.5h-12h-24h-4h-186zM735 132q10 0 17 -6.5t7 -17.5q0 -10 -7 -17t-17 -7h-201h-26q-36 0 -59 8.5t-37 25.5q-26 -34 -97 -34h-24h-195q-9 0 -16.5 7t-7.5 17q0 11 7.5 17.5t16.5 6.5h191h4h24h12q23 0 35.5 11t18.5 25q7 16 8 37v37
q0 10 7.5 17.5t15.5 7.5q10 0 17 -7.5t7 -17.5v-37q1 -21 8 -37q6 -14 18 -25t35 -11h11h26h5h196z" />
    <glyph glyph-name="asciitilde" unicode="~" horiz-adv-x="576" 
d="M497 732q12 0 20.5 -8.5t8.5 -20.5q0 -13 -8.5 -21.5t-20.5 -8.5h-412q-12 0 -20.5 8.5t-8.5 21.5q0 12 8.5 20.5t20.5 8.5h412v0z" />
    <glyph glyph-name="endash" unicode="&#x2013;" horiz-adv-x="577" 
d="M494 300q12 0 20.5 -8.5t8.5 -20.5q0 -13 -8.5 -21.5t-20.5 -8.5h-412q-12 0 -20.5 8.5t-8.5 21.5q0 12 8.5 20.5t20.5 8.5h412v0z" />
    <glyph glyph-name="emdash" unicode="&#x2014;" horiz-adv-x="573" 
d="M494 300q12 0 20.5 -8.5t8.5 -20.5q0 -13 -8.5 -21.5t-20.5 -8.5h-412q-12 0 -20.5 8.5t-8.5 21.5q0 12 8.5 20.5t20.5 8.5h412v0z" />
    <glyph glyph-name="tilde" unicode="&#x2dc;" horiz-adv-x="586" 
d="M499 732q12 0 20.5 -8.5t8.5 -20.5q0 -13 -8.5 -21.5t-20.5 -8.5h-412q-12 0 -20.5 8.5t-8.5 21.5q0 12 8.5 20.5t20.5 8.5h412v0z" />
    <glyph glyph-name="Ugrave" unicode="&#xd9;" horiz-adv-x="819" 
d="M746 700q10 0 16.5 -6.5t6.5 -16.5v-277v-187v-139v-23v-109q0 -29 -17.5 -62.5t-45.5 -62t-62.5 -48t-67.5 -19.5h-132h-12h-46h-11h-59h-73q-32 0 -66 18.5t-61 47.5q-26 24 -43.5 53.5t-21.5 59.5q-1 1 -1 5v8v39v70v23v58v81v187v277q0 10 6.5 16.5t16.5 6.5t17 -6.5
t7 -16.5v-277v-187v-81v-58v-23v-70v-23q0 -26 14.5 -54.5t38.5 -53.5q25 -24 53.5 -39t54.5 -15h58h59h11h46h12h117q28 0 57 16t52 40t37.5 52.5t14.5 53.5v93v23v139v187v277q0 10 7.5 16.5t16.5 6.5zM474 777q8 -12 5.5 -24t-14.5 -20q-10 -5 -23.5 -1.5t-21.5 15.5
l-214 385q-5 11 -3 23.5t17 19.5q16 8 25.5 3.5t16.5 -14.5z" />
    <glyph glyph-name="Uacute" unicode="&#xda;" horiz-adv-x="819" 
d="M746 700q10 0 16.5 -6.5t6.5 -16.5v-277v-187v-139v-23v-109q0 -29 -17.5 -62.5t-45.5 -62t-62.5 -48t-67.5 -19.5h-132h-12h-46h-11h-59h-73q-32 0 -66 18.5t-61 47.5q-26 24 -43.5 53.5t-21.5 59.5q-1 1 -1 5v8v39v70v23v58v81v187v277q0 10 6.5 16.5t16.5 6.5t17 -6.5
t7 -16.5v-277v-187v-81v-58v-23v-70v-23q0 -26 14.5 -54.5t38.5 -53.5q25 -24 53.5 -39t54.5 -15h58h59h11h46h12h117q28 0 57 16t52 40t37.5 52.5t14.5 53.5v93v23v139v187v277q0 10 7.5 16.5t16.5 6.5zM716 1184q15 -7 17 -19.5t-3 -23.5l-214 -385q-8 -12 -21.5 -15.5
t-23.5 1.5q-12 8 -14.5 20t5.5 24l212 387q7 10 16.5 14.5t25.5 -3.5z" />
    <glyph glyph-name="Ucircumflex" unicode="&#xdb;" horiz-adv-x="819" 
d="M746 700q10 0 16.5 -6.5t6.5 -16.5v-277v-187v-139v-23v-109q0 -29 -17.5 -62.5t-45.5 -62t-62.5 -48t-67.5 -19.5h-132h-12h-46h-11h-59h-73q-32 0 -66 18.5t-61 47.5q-26 24 -43.5 53.5t-21.5 59.5q-1 1 -1 5v8v39v70v23v58v81v187v277q0 10 6.5 16.5t16.5 6.5t17 -6.5
t7 -16.5v-277v-187v-81v-58v-23v-70v-23q0 -26 14.5 -54.5t38.5 -53.5q25 -24 53.5 -39t54.5 -15h58h59h11h46h12h117q28 0 57 16t52 40t37.5 52.5t14.5 53.5v93v23v139v187v277q0 10 7.5 16.5t16.5 6.5zM659 776q7 -24 -10 -35q-8 -5 -18.5 -3t-13.5 10l-167 297
q-17 20 -32.5 23.5t-28 -1t-21.5 -13t-12 -12.5l-165 -292q-3 -9 -13 -11.5t-18 2.5t-10.5 14.5t2.5 20.5l230 408q3 6 8.5 9t12.5 3t13.5 -3t9.5 -9z" />
    <glyph glyph-name="Udieresis" unicode="&#xdc;" horiz-adv-x="819" 
d="M746 700q10 0 16.5 -6.5t6.5 -16.5v-277v-187v-139v-23v-109q0 -29 -17.5 -62.5t-45.5 -62t-62.5 -48t-67.5 -19.5h-132h-12h-46h-11h-59h-73q-32 0 -66 18.5t-61 47.5q-26 24 -43.5 53.5t-21.5 59.5q-1 1 -1 5v8v39v70v23v58v81v187v277q0 10 6.5 16.5t16.5 6.5t17 -6.5
t7 -16.5v-277v-187v-81v-58v-23v-70v-23q0 -26 14.5 -54.5t38.5 -53.5q25 -24 53.5 -39t54.5 -15h58h59h11h46h12h117q28 0 57 16t52 40t37.5 52.5t14.5 53.5v93v23v139v187v277q0 10 7.5 16.5t16.5 6.5zM317 855q17 0 29 -12t12 -28v-32q0 -17 -12 -28.5t-29 -11.5
q-16 0 -27.5 11.5t-11.5 28.5v32q0 16 11.5 28t27.5 12zM497 855q17 0 29 -12t12 -28v-32q0 -17 -12 -28.5t-29 -11.5q-16 0 -27.5 11.5t-11.5 28.5v32q0 16 11.5 28t27.5 12z" />
    <glyph glyph-name="atilde" unicode="&#xe3;" horiz-adv-x="618" 
d="M79 242q-12 0 -20.5 8.5t-8.5 20.5t8.5 20.5t20.5 8.5h406q12 0 20.5 -8.5t8.5 -20.5t-8.5 -20.5t-20.5 -8.5h-406zM542 171q13 0 21.5 -8.5t8.5 -20.5v-363q0 -11 -8.5 -20t-21.5 -9h-318h-15h-14q-44 0 -72 10.5t-44 29.5t-22.5 45t-6.5 58v2v29v1q0 33 6.5 59.5
t22.5 45t44 29t72 10.5h29h290v73q0 12 8.5 20.5t19.5 8.5zM230 -191h284v203h-284h-6h-29h-15q-27 0 -41.5 -13.5t-21 -29.5t-8 -30t-1.5 -15v-29q0 -2 1.5 -15.5t8 -29t21 -28.5t41.5 -13h29h15h6zM429 417q12 0 20.5 -8.5t8.5 -20.5q0 -13 -8.5 -21.5t-20.5 -8.5h-307
q-12 0 -20.5 8.5t-8.5 21.5q0 12 8.5 20.5t20.5 8.5h307z" />
    <glyph glyph-name="adieresis" unicode="&#xe4;" horiz-adv-x="618" 
d="M79 242q-12 0 -20.5 8.5t-8.5 20.5t8.5 20.5t20.5 8.5h406q12 0 20.5 -8.5t8.5 -20.5t-8.5 -20.5t-20.5 -8.5h-406zM542 171q13 0 21.5 -8.5t8.5 -20.5v-363q0 -11 -8.5 -20t-21.5 -9h-318h-15h-14q-44 0 -72 10.5t-44 29.5t-22.5 45t-6.5 58v2v29v1q0 33 6.5 59.5
t22.5 45t44 29t72 10.5h29h290v73q0 12 8.5 20.5t19.5 8.5zM230 -191h284v203h-284h-6h-29h-15q-27 0 -41.5 -13.5t-21 -29.5t-8 -30t-1.5 -15v-29q0 -2 1.5 -15.5t8 -29t21 -28.5t41.5 -13h29h15h6zM207 500q17 0 29 -12t12 -28v-32q0 -17 -12 -28.5t-29 -11.5
q-16 0 -27.5 11.5t-11.5 28.5v32q0 16 11.5 28t27.5 12zM387 500q17 0 29 -12t12 -28v-32q0 -17 -12 -28.5t-29 -11.5q-16 0 -27.5 11.5t-11.5 28.5v32q0 16 11.5 28t27.5 12z" />
    <glyph glyph-name="eacute" unicode="&#xe9;" horiz-adv-x="665" 
d="M542 -193q12 0 20.5 -8t8.5 -21q0 -11 -8.5 -19.5t-20.5 -8.5h-347h-26q-31 0 -53 11.5t-36.5 31.5t-22 46.5t-7.5 55.5v246q0 11 8.5 20t20.5 9t20 -9t8 -20v-246q1 -25 9 -44q7 -17 21.5 -30.5t42.5 -13.5h362zM615 129q0 -43 -10.5 -71t-29.5 -44t-45.5 -22.5
t-58.5 -6.5h-202q-12 0 -21 8.5t-9 20.5q0 11 9 19.5t21 8.5h201q24 1 43 9q16 7 29.5 21.5t13.5 41.5v41q-1 24 -9 43q-7 17 -21.5 30.5t-41.5 13.5h-348q-11 0 -20 8.5t-9 20.5t9 20.5t20 8.5h305h43q63 0 97 -38t34 -104v-29zM301 359q-8 -9 -19 -7t-19 11q-8 8 -8.5 20
t9.5 20l100 88q9 8 22 7.5t21 -8.5q8 -9 6 -21.5t-10 -21.5z" />
    <glyph glyph-name="edieresis" unicode="&#xeb;" horiz-adv-x="665" 
d="M542 -193q12 0 20.5 -8t8.5 -21q0 -11 -8.5 -19.5t-20.5 -8.5h-347h-26q-31 0 -53 11.5t-36.5 31.5t-22 46.5t-7.5 55.5v246q0 11 8.5 20t20.5 9t20 -9t8 -20v-246q1 -25 9 -44q7 -17 21.5 -30.5t42.5 -13.5h362zM615 129q0 -43 -10.5 -71t-29.5 -44t-45.5 -22.5
t-58.5 -6.5h-202q-12 0 -21 8.5t-9 20.5q0 11 9 19.5t21 8.5h201q24 1 43 9q16 7 29.5 21.5t13.5 41.5v41q-1 24 -9 43q-7 17 -21.5 30.5t-41.5 13.5h-348q-11 0 -20 8.5t-9 20.5t9 20.5t20 8.5h305h43q63 0 97 -38t34 -104v-29zM207 500q17 0 29 -12t12 -28v-32
q0 -17 -12 -28.5t-29 -11.5q-16 0 -27.5 11.5t-11.5 28.5v32q0 16 11.5 28t27.5 12zM387 500q17 0 29 -12t12 -28v-32q0 -17 -12 -28.5t-29 -11.5q-16 0 -27.5 11.5t-11.5 28.5v32q0 16 11.5 28t27.5 12z" />
    <glyph glyph-name="idieresis" unicode="&#xef;" horiz-adv-x="353" 
d="M177 300q12 0 20.5 -8.5t8.5 -20.5v-491q0 -13 -8.5 -21.5t-20.5 -8.5t-20.5 8.5t-8.5 21.5v491q0 12 8.5 20.5t20.5 8.5zM81 476q17 0 29 -12t12 -28v-32q0 -17 -12 -28.5t-29 -11.5q-16 0 -27.5 11.5t-11.5 28.5v32q0 16 11.5 28t27.5 12zM261 476q17 0 29 -12t12 -28
v-32q0 -17 -12 -28.5t-29 -11.5q-16 0 -27.5 11.5t-11.5 28.5v32q0 16 11.5 28t27.5 12z" />
    <glyph glyph-name="ntilde" unicode="&#xf1;" horiz-adv-x="592" 
d="M79 170q12 0 20.5 -8.5t8.5 -20.5v-362q0 -12 -8.5 -20.5t-20.5 -8.5t-20.5 8.5t-8.5 20.5v362q0 12 8.5 20.5t20.5 8.5zM542 -221q0 -12 -8 -20.5t-21 -8.5q-12 0 -20.5 8.5t-8.5 20.5v377q-1 24 -9 43q-7 16 -21.5 29.5t-41.5 13.5h-23h-20h-7h-225q-13 0 -21 9t-8 20
q0 12 8 20.5t21 8.5h232h20h9q42 0 69.5 -10t44 -28.5t23 -45t7.5 -58.5v-379zM493 417q12 0 20.5 -8.5t8.5 -20.5q0 -13 -8.5 -21.5t-20.5 -8.5h-412q-12 0 -20.5 8.5t-8.5 21.5q0 12 8.5 20.5t20.5 8.5h412z" />
    <glyph glyph-name="eth" unicode="&#xf0;" horiz-adv-x="703" 
d="M653 586v-2v-24v-242q0 -22 -7.5 -43t-24.5 -38q15 -14 23.5 -36t8.5 -57v-24v-280q0 -23 -10 -39.5t-26 -28t-37 -17t-43 -5.5h-19h-5h-439q-10 0 -16.5 6.5t-6.5 16.5t6.5 17t16.5 7h434h5h5h31q21 0 33 10.5t17 23.5q6 15 7 35v249v5v24v12q0 21 -11 33t-24 17
q-15 6 -34 7h-1h-23h-351h-1q-24 0 -44.5 5.5t-35 18.5t-23 35t-8.5 55v3v23v243v5q3 46 27.5 72.5t88.5 26.5h6h18h360h5q22 -2 40 -8t30.5 -19t20 -34t7.5 -52v-1zM606 560v26v10q0 21 -11 33t-24 17q-15 6 -34 7h-342h-5h-18h-18q-22 0 -33.5 -11t-16.5 -24
q-6 -15 -7 -34v-226v-5v-26v-9q0 -22 10.5 -34t23.5 -17q15 -6 35 -7h342h5h23h13q21 0 33 10.5t17 24.5q6 15 7 35v225v5z" />
    <glyph glyph-name="ccedilla" unicode="&#xe7;" horiz-adv-x="622" 
d="M543 -192q12 0 20.5 -8.5t8.5 -21.5q0 -12 -8.5 -20t-20.5 -8h-318h-30q-44 0 -72 10.5t-44 29.5t-22.5 46t-6.5 60v245q0 13 8 21t21 8t21.5 -8t8.5 -21v-245q1 -25 9 -44q7 -17 21 -30.5t41 -13.5h363zM138 242q-13 0 -21 8t-8 22q0 12 8 20t21 8h410q12 0 20.5 -8
t8.5 -20q0 -14 -8.5 -22t-20.5 -8h-410zM349 -216q11 0 18 -7t7 -18v-228q0 -11 -7 -18t-18 -7t-17.5 7t-6.5 18v228q0 11 6.5 18t17.5 7z" />
    <glyph glyph-name="Ccedilla" unicode="&#xc7;" horiz-adv-x="785" 
d="M712 -204q9 0 16 -6t7 -17q0 -9 -7 -16t-16 -7h-267h-70h-131q-29 0 -63 17.5t-63 45.5t-48 62.5t-19 67.5v108v36v289v23v108q0 29 17.5 63t45.5 63t62.5 48t67.5 19h131h13h324q9 0 16 -7t7 -16q0 -11 -7 -17t-16 -6h-324h-13h-115q-29 0 -58 -16t-52.5 -40t-38 -53
t-14.5 -54v-92v-23v-289v-36v-92q0 -29 16 -58t40 -52.5t52.5 -38t54.5 -14.5h115h70h267zM447 -216q11 0 18 -7t7 -18v-228q0 -11 -7 -18t-18 -7t-17.5 7t-6.5 18v228q0 11 6.5 18t17.5 7z" />
    <glyph glyph-name="numbersign" unicode="#" horiz-adv-x="1023" 
d="M609 697q9 -4 13 -13.5t-3 -18.5l-440 -901q-5 -9 -14.5 -12.5t-17.5 1.5q-11 5 -14.5 14.5t0.5 18.5l444 900q4 10 13.5 13t18.5 -2zM887 697q9 -4 13 -13.5t-3 -18.5l-440 -901q-5 -9 -14.5 -12.5t-17.5 1.5q-11 5 -14.5 14.5t0.5 18.5l444 900q4 10 13.5 13t18.5 -2z
M977 328q1 -10 -6 -17.5t-18 -5.5l-878 -6q-11 1 -18 8t-6 16q-1 11 6.5 18.5t17.5 8.5l878 2q11 1 18 -6t6 -18zM975 79q0 -10 -7 -17.5t-18 -5.5l-876 -6q-11 1 -18 8t-6 16q-1 11 6 18.5t17 8.5l878 2q10 1 17.5 -6t6.5 -18z" />
    <glyph glyph-name="A" unicode="A" horiz-adv-x="935" 
d="M884 -218q4 -9 -0.5 -18t-12.5 -12q-9 -4 -17.5 -0.5t-12.5 13.5l-293 738q-14 28 -32 49t-46 21q-24 0 -44 -21.5t-35 -48.5l-298 -738q-4 -9 -13 -13t-17 0q-9 4 -12.5 12.5t-0.5 18.5l278 688l37 102q13 35 30 63q14 24 33 44t42 20q22 0 41.5 -20t33.5 -44
q17 -28 30 -63l43 -122l266 -669v0z" />
    <glyph glyph-name="D" unicode="D" horiz-adv-x="782" 
d="M539 700q33 0 67.5 -19.5t62.5 -48.5t46 -63t18 -63v-107v-23v-290v-35v-107q0 -33 -19.5 -67.5t-48.5 -62.5t-63 -46t-63 -18h-131h-69h-267q-10 0 -16.5 6.5t-6.5 16.5t6.5 16.5t16.5 6.5h267h69h116q25 0 53.5 14.5t52.5 38t40 52.5t16 58v92v35v290v23v91
q0 25 -14.5 54t-37.5 53t-52 40t-58 16h-116h-11h-325q-10 0 -16.5 6.5t-6.5 16.5q0 11 6.5 17.5t16.5 6.5h325h11h131v0z" />
    <glyph glyph-name="otilde" unicode="&#xf5;" horiz-adv-x="593" 
d="M543 -105q-2 -69 -31 -103.5t-101 -41.5h-13h-30h-144h-14h-15q-43 0 -71 10.5t-44 29t-22.5 45t-7.5 59.5v277q0 11 8.5 19.5t20.5 8.5t20 -8.5t8 -19.5v-276q1 -25 9 -44q7 -17 21.5 -30.5t41.5 -13.5h31h14h6h133h5h43q27 0 42 13.5t22 30.5q8 19 9 44v260
q-1 25 -9 44q-7 17 -22 30.5t-42 13.5h-275q-12 0 -20.5 8t-8.5 20t8.5 20.5t20.5 8.5h232h23h7q43 0 71 -10t44.5 -29t23 -45.5t6.5 -59.5v-261zM502 528q12 0 20.5 -8.5t8.5 -20.5q0 -13 -8.5 -21.5t-20.5 -8.5h-412q-12 0 -20.5 8.5t-8.5 21.5q0 12 8.5 20.5t20.5 8.5
h412v0z" />
    <glyph glyph-name="B" unicode="B" horiz-adv-x="732" 
d="M491 699q29 0 62.5 -17.5t62.5 -45.5t48 -62.5t19 -67.5v-37v-13v-73q0 -21 -9.5 -45t-26 -47t-38 -43.5t-45.5 -34.5q23 -13 44.5 -32.5t38 -42t26.5 -47t10 -47.5v-27v-36v-37q0 -29 -17.5 -63t-45.5 -63t-62 -48t-67 -19h-4h-138h-276q-10 0 -16.5 6.5t-6.5 16.5
t6.5 16.5t16.5 6.5h276h126q29 0 58 16t52 40t37.5 52t14.5 53v23v36v12q0 28 -16 57t-40 52.5t-52.5 38t-53.5 14.5h-11h-47h-11h-321q-10 0 -17 6.5t-7 15.5q0 10 7 16.5t17 6.5h321h11h47h11q29 0 58 16t52 40t37.5 52.5t14.5 53.5v58v13v22q0 29 -16 57.5t-40 51.5
t-52.5 37.5t-53.5 14.5h-58h-344q-10 0 -16.5 7t-6.5 17t6.5 16.5t16.5 6.5h344h70h4v0z" />
    <glyph glyph-name="C" unicode="C" horiz-adv-x="785" 
d="M712 -204q9 0 16 -6t7 -17q0 -9 -7 -16t-16 -7h-267h-70h-131q-29 0 -63 17.5t-63 45.5t-48 62.5t-19 67.5v108v36v289v23v108q0 29 17.5 63t45.5 63t62.5 48t67.5 19h131h13h324q9 0 16 -7t7 -16q0 -11 -7 -17t-16 -6h-324h-13h-115q-29 0 -58 -16t-52.5 -40t-38 -53
t-14.5 -54v-92v-23v-289v-36v-92q0 -29 16 -58t40 -52.5t52.5 -38t54.5 -14.5h115h70h267v0z" />
    <glyph glyph-name="odieresis" unicode="&#xf6;" horiz-adv-x="593" 
d="M202 559q17 0 29 -12t12 -28v-32q0 -17 -12 -28.5t-29 -11.5q-16 0 -27.5 11.5t-11.5 28.5v32q0 16 11.5 28t27.5 12zM382 559q17 0 29 -12t12 -28v-32q0 -17 -12 -28.5t-29 -11.5q-16 0 -27.5 11.5t-11.5 28.5v32q0 16 11.5 28t27.5 12zM543 -105q-2 -69 -31 -103.5
t-101 -41.5h-13h-30h-144h-14h-15q-43 0 -71 10.5t-44 29t-22.5 45t-7.5 59.5v277q0 11 8.5 19.5t20.5 8.5t20 -8.5t8 -19.5v-276q1 -25 9 -44q7 -17 21.5 -30.5t41.5 -13.5h31h14h6h133h5h43q27 0 42 13.5t22 30.5q8 19 9 44v260q-1 25 -9 44q-7 17 -22 30.5t-42 13.5h-275
q-12 0 -20.5 8t-8.5 20t8.5 20.5t20.5 8.5h232h23h7q43 0 71 -10t44.5 -29t23 -45.5t6.5 -59.5v-261z" />
    <glyph glyph-name="yacute" unicode="&#xfd;" horiz-adv-x="728" 
d="M391 359q-8 -9 -19 -7t-19 11q-8 8 -8.5 20t9.5 20l100 88q9 8 22 7.5t21 -8.5q8 -9 6 -21.5t-10 -21.5zM666 296q12 -6 15.5 -18t-3.5 -23l-285 -502v-397q0 -12 -9 -21t-21 -9q-14 0 -22 9t-8 21v398l-283 501q-7 11 -4 23t13 18q11 7 23 3.5t19 -14.5l206 -364
q3 -3 13 -13.5t25.5 -16.5t34.5 -1.5t40 30.5l206 365q5 11 17 14.5t23 -3.5zM666 296q12 -6 15.5 -18t-3.5 -23l-285 -502v-397q0 -12 -9 -21t-21 -9q-14 0 -22 9t-8 21v398l-283 501q-7 11 -4 23t13 18q11 7 23 3.5t19 -14.5l206 -364q3 -3 13 -13.5t25.5 -16.5t34.5 -1.5
t40 30.5l206 365q5 11 17 14.5t23 -3.5z" />
    <glyph glyph-name="Eth" unicode="&#xd0;" horiz-adv-x="782" 
d="M539 700q33 0 67.5 -19.5t62.5 -48.5t46 -63t18 -63v-107v-23v-290v-35v-107q0 -33 -19.5 -67.5t-48.5 -62.5t-63 -46t-63 -18h-131h-69h-267q-10 0 -16.5 6.5t-6.5 16.5t6.5 16.5t16.5 6.5h267h69h116q25 0 53.5 14.5t52.5 38t40 52.5t16 58v92v35v290v23v91
q0 25 -14.5 54t-37.5 53t-52 40t-58 16h-116h-11h-325q-10 0 -16.5 6.5t-6.5 16.5q0 11 6.5 17.5t16.5 6.5h325h11h131zM-125 218q0 11 5 17.5t13 6.5h313q8 0 13 -6.5t5 -17.5q0 -10 -5 -16.5t-13 -6.5h-313q-8 0 -13 6.5t-5 16.5z" />
    <glyph glyph-name="aring" unicode="&#xe5;" horiz-adv-x="618" 
d="M303 500q17 0 29 -12t12 -28v-32q0 -17 -12 -28.5t-29 -11.5q-16 0 -27.5 11.5t-11.5 28.5v32q0 16 11.5 28t27.5 12zM75 242q-12 0 -20.5 8.5t-8.5 20.5t8.5 20.5t20.5 8.5h406q12 0 20.5 -8.5t8.5 -20.5t-8.5 -20.5t-20.5 -8.5h-406zM538 171q13 0 21.5 -8.5t8.5 -20.5
v-363q0 -11 -8.5 -20t-21.5 -9h-318h-15h-14q-44 0 -72 10.5t-44 29.5t-22.5 45t-6.5 58v2v29v1q0 33 6.5 59.5t22.5 45t44 29t72 10.5h29h290v73q0 12 8.5 20.5t19.5 8.5zM226 -191h284v203h-284h-6h-29h-15q-27 0 -41.5 -13.5t-21 -29.5t-8 -30t-1.5 -15v-29
q0 -2 1.5 -15.5t8 -29t21 -28.5t41.5 -13h29h15h6z" />
    <glyph glyph-name="onehalf" unicode="&#xbd;" horiz-adv-x="1455" 
d="M73 700q9 0 16 -7t7 -16v-903q0 -10 -7 -17t-16 -7t-16 7t-7 17v903q0 9 7 16t16 7zM666 697q9 -4 13 -13.5t-3 -18.5l-440 -901q-5 -9 -14.5 -12.5t-17.5 1.5q-11 5 -14.5 14.5t0.5 18.5l444 900q4 10 13.5 13t18.5 -2zM1383 -203q9 0 15.5 -7t6.5 -17q0 -8 -6.5 -15.5
t-15.5 -7.5h-503h-4q-46 3 -73 28t-27 88v20v268v4q2 23 8 42t19 32.5t34.5 20.5t54.5 7h9h14h319h6h6h29q21 0 32.5 10.5t16.5 23.5q6 15 7 35v232v34q0 22 -10.5 34.5t-23.5 17.5q-15 6 -34 7h-464q-9 0 -16 6.5t-7 15.5q0 10 7 17t16 7h469h2q50 -1 79 -25t29 -90v-10
v-253v-1q-1 -24 -6.5 -44t-18.5 -34.5t-35 -22t-55 -7.5h-17h-6h-321h-4h-14h-21q-22 0 -34 -11t-17 -24q-6 -15 -7 -34v-254v-35q0 -22 10.5 -34t24.5 -17q15 -6 35 -7h491z" />
    <glyph glyph-name="threequarters" unicode="&#xbe;" horiz-adv-x="1938" 
d="M490 700q26 0 47.5 -5t36.5 -18.5t23.5 -36t8.5 -56.5v-22v-1v-243q0 -23 -7.5 -44t-24.5 -38q32 -24 32 -92v-13v-11v-266v-5q-3 -45 -27.5 -72t-88.5 -27h-2h-21h-394q-10 0 -16.5 6.5t-6.5 16.5t6.5 16.5t16.5 6.5h389h5h21h14q22 0 34 10.5t17 24.5q6 15 7 35v248v6
v11v24q0 22 -11 34t-24 17q-16 6 -35 7h-2h-21h-209q-9 0 -15.5 7t-6.5 16q0 11 6.5 17.5t15.5 6.5h204h5h21h14q22 0 34 10.5t17 23.5q6 15 7 35v227v5v1v34q0 21 -11 33t-24 17q-16 6 -35 7h-2h-415q-10 0 -16.5 6.5t-6.5 16.5t6.5 17t16.5 7h415h2zM1176 697
q9 -4 13 -13.5t-3 -18.5l-440 -901q-5 -9 -14.5 -12.5t-17.5 1.5q-11 5 -14.5 14.5t0.5 18.5l444 900q4 10 13.5 13t18.5 -2zM1888 329q0 -30 -6.5 -54t-25.5 -39q29 -23 32 -76v-5v-11v-23v-348q0 -10 -6.5 -16.5t-16.5 -6.5t-16.5 6.5t-6.5 16.5v343v5v34q0 22 -11 34.5
t-24 17.5q-16 6 -35 7h-22h-325h-9h-14q-35 0 -57.5 8t-35.5 23t-18 36.5t-5 47.5v348q0 10 6.5 16.5t16.5 6.5t16.5 -6.5t6.5 -16.5v-348q1 -20 7 -35q5 -14 17 -24.5t35 -10.5h25h9h5h315h5h30h4q22 0 34 10.5t17 24.5q6 15 7 35v348q0 10 6.5 16.5t16.5 6.5t16.5 -6.5
t6.5 -16.5v-348z" />
    <glyph glyph-name="AE" unicode="&#xc6;" horiz-adv-x="1719" 
 />
    <glyph glyph-name="guilsinglleft" unicode="&#x2039;" horiz-adv-x="833" 
 />
    <glyph glyph-name="guilsinglright" unicode="&#x203a;" horiz-adv-x="833" 
 />
    <glyph glyph-name="ydieresis" unicode="&#xff;" horiz-adv-x="728" 
d="M263 500q17 0 29 -12t12 -28v-32q0 -17 -12 -28.5t-29 -11.5q-16 0 -27.5 11.5t-11.5 28.5v32q0 16 11.5 28t27.5 12zM443 500q17 0 29 -12t12 -28v-32q0 -17 -12 -28.5t-29 -11.5q-16 0 -27.5 11.5t-11.5 28.5v32q0 16 11.5 28t27.5 12zM666 296q12 -6 15.5 -18
t-3.5 -23l-285 -502v-397q0 -12 -9 -21t-21 -9q-14 0 -22 9t-8 21v398l-283 501q-7 11 -4 23t13 18q11 7 23 3.5t19 -14.5l206 -364q3 -3 13 -13.5t25.5 -16.5t34.5 -1.5t40 30.5l206 365q5 11 17 14.5t23 -3.5z" />
    <glyph glyph-name="trademark" unicode="&#x2122;" horiz-adv-x="685" 
d="M148 640q6 0 6 -7v-196q0 -7 -6 -7q-8 0 -8 7v196q0 7 8 7zM259 700q6 0 6 -7q0 -6 -6 -6h-223q-7 0 -7 6q0 7 7 7h223zM648 438q2 -5 -3 -8q-7 -2 -9 4l-73 182l-10 27q-4 7 -9.5 12.5t-13.5 5.5t-13.5 -7.5t-10.5 -15.5l-18 -46q-4 -10 -8 -18q-4 -7 -9.5 -12.5
t-12.5 -5.5q-6 0 -11 5.5t-9 12.5l-9 18l-16 45q-5 9 -11 16.5t-13 7.5q-8 0 -13.5 -5.5t-10.5 -12.5l-85 -209q-1 -6 -7 -4q-6 4 -3 8l78 196l11 27q4 10 8 19q4 7 9.5 13t12.5 6q5 0 10.5 -6t9.5 -13q4 -9 8 -19l15 -38q4 -11 10.5 -21t15.5 -10t15.5 9t11.5 18l15 42
q4 10 9 19q4 7 9.5 13t11.5 6t11.5 -6t9.5 -13q4 -9 9 -19l8 -19z" />
  </font>
</defs>
</svg>
